<svg width="103" height="103" viewBox="0 0 103 103" fill="none" xmlns="http://www.w3.org/2000/svg">
<path d="M51.8932 5.50377C44.3291 7.43502 39.0096 9.88102 38.5267 11.0076C38.2049 12.1341 39.2761 13.5617 40.8855 15.332C43.6215 18.3898 43.1276 19.38 31.0573 31.4503C19.1479 43.3597 15.45 47.4948 19.7953 47.4948C22.0485 47.4948 48.2813 20.1354 48.2813 17.7214C48.2813 16.7557 45.9434 15.6723 44.8168 14.5457C42.7246 12.4536 44.0944 11.3847 55.0382 8.6488C67.6183 5.50377 67.7981 4.71751 66.0458 11.7938C61.8615 28.6923 60.8479 29.8618 57.7901 27.1259C56.1807 25.6775 54.6635 23.9809 53.8588 23.9809C51.6057 23.9809 1.60941 73.7276 1.60941 76.1417C1.60941 80.9698 6.00631 75.7647 28.6985 53.0725C52.8391 28.9318 53.5529 27.6775 56.6107 31.0572C58.2201 32.8275 60.7558 33.8091 61.7214 33.8091C63.3308 33.8091 71.5496 7.74092 71.5496 2.75186C71.5496 1.14249 65.4119 1.96314 51.8932 5.50377Z" fill="#410E28"/>
<path d="M97.6891 1.78859C97.0453 2.43233 97.6891 7.90421 97.6891 13.8589V25.7683H85.3092H73.2266V37.3473V49.9089H60.9351H49.086V61.3282L48.6031 74.0495H36.5611H24.9453V85.7023V98.2824H12.9733C4.60455 98.2824 1.44845 97.8683 1.93126 99.3167C2.89689 102.053 25.2672 103.018 28.325 100.443C29.7735 99.1558 29.4847 95.2135 29.4847 88.4542V78.073H40.7172C46.511 78.073 51.661 77.2683 52.7875 76.1417C53.9141 75.0152 53.8588 69.8739 53.8588 64.0801V53.4656H65.2595C71.0533 53.4656 75.8016 53.1277 76.9281 52.0011C78.0547 50.8745 77.8397 45.893 77.8397 40.0992V29.4847H89.2405C95.9998 29.4847 99.9422 28.987 101.23 27.5386C102.356 26.0902 102.142 21.1011 101.821 13.8589C101.338 3.23702 100.586 -1.10829 97.6891 1.78859Z" fill="#410E28"/>
<path d="M3.21878 59.5652C3.21878 60.8527 4.02347 61.9792 4.82816 61.9792C5.79378 61.9792 6.43753 60.8527 6.43753 59.5652C6.43753 58.2777 5.79378 57.1511 4.82816 57.1511C4.02347 57.1511 3.21878 58.2777 3.21878 59.5652Z" fill="#410E28"/>
</svg>
