<svg width="109" height="108" viewBox="0 0 109 108" fill="none" xmlns="http://www.w3.org/2000/svg">
<g clip-path="url(#clip0_90_31)">
<path d="M18.0396 2.02451C17.7923 2.87577 17.6686 11.5101 17.7923 21.1173L18.1632 38.7508L24.0985 39.1156L29.9102 39.4804V57.2355V74.9906L23.233 68.6668C15.6902 61.7351 12.1042 60.8838 7.90006 65.2618C2.70666 70.7342 3.94318 72.9232 21.6255 90.0702C31.0231 99.3126 39.3078 106.366 41.2862 106.852C43.0174 107.339 50.9311 107.46 58.7212 107.217C70.8391 106.974 73.5595 106.488 76.5272 104.299C82.8334 99.799 84.3173 95.0562 84.3173 79.3685C84.3173 66.7211 84.07 64.8969 81.7206 61.8567C79.6185 59.3029 78.2583 58.6948 75.2906 59.1813C72.6939 59.5461 70.8391 58.8164 68.6134 56.6274C66.264 54.3169 64.7802 53.8304 61.9362 54.4385C59.4631 54.9249 57.1137 54.4385 55.1353 53.2224C53.5278 52.1279 51.0548 51.5198 49.6946 51.8847C47.4688 52.4927 47.2215 51.8847 47.2215 46.0474V39.4804L51.9203 39.1156L56.4955 38.7508V19.9012V1.05162L37.5766 0.68679C22.862 0.443573 18.5342 0.68679 18.0396 2.02451ZM52.1676 19.9012C52.1676 33.1567 51.9203 34.4944 49.9419 34.4944C48.7054 34.4944 46.4796 32.7919 44.9958 30.8461C43.3883 28.7787 41.0389 27.1978 39.5551 27.1978C37.3293 27.1978 37.8239 26.3465 42.77 21.1173C45.8614 17.8338 48.4581 14.672 48.4581 13.9423C48.4581 10.902 44.6248 11.9965 40.297 16.3745L35.5982 21.1173L33.0015 18.6851C29.9102 15.7664 27.9318 15.6448 27.0662 18.077C26.5716 19.1715 28.0554 21.2389 30.6521 23.4279L35.1036 26.9546L32.2596 30.7245C30.2811 33.3999 28.4264 34.4944 25.9533 34.4944H22.491V19.9012V5.30798H37.3293H52.1676V19.9012ZM40.7916 33.6431C41.5335 34.4944 42.3991 41.183 42.5227 48.4796C42.77 57.6003 43.3883 61.8567 44.3775 62.0999C45.2431 62.4647 46.4796 61.2486 47.2215 59.5461C49.0763 54.5601 53.7751 55.8978 54.7643 61.7351C55.5062 65.3834 58.2266 65.505 59.5868 61.9783C61.6889 56.5058 66.3877 58.5732 67.2532 65.3834C67.7478 70.0046 70.3445 70.8558 71.952 66.8427C72.5703 65.1402 73.8068 63.6808 74.796 63.6808C78.5056 63.6808 79.3712 66.5995 79.3712 79.7334C79.3712 94.4482 78.011 98.7045 72.5703 101.137C67.8715 103.204 44.2539 103.083 40.0497 100.894C34.1144 97.7317 9.8785 72.8016 10.3731 70.2478C11.2387 65.6266 15.0719 67.0859 23.7276 75.2338C28.4264 79.7334 32.7542 83.0168 33.4961 82.5304C34.3617 82.044 34.8563 73.4096 34.8563 57.7219C34.8563 44.4664 35.2272 33.2783 35.7219 32.9135C36.9584 31.5758 39.4314 31.9406 40.7916 33.6431Z" fill="#410E28"/>
<path d="M65.0275 2.02472C64.7802 2.87599 64.6565 11.5103 64.7802 21.1175L65.1512 38.751H84.3173H103.483V19.9014V1.05184L84.5646 0.687008C69.8499 0.44379 65.5221 0.687008 65.0275 2.02472ZM99.1556 19.9014V34.4946H84.3173H69.479V19.9014V5.30819H84.3173H99.1556V19.9014Z" fill="#410E28"/>
</g>
<defs>
<clipPath id="clip0_90_31">
<rect width="108.8" height="107.003" fill="white" transform="translate(0.205811 0.603516)"/>
</clipPath>
</defs>
</svg>
