<svg width="108" height="105" viewBox="0 0 108 105" fill="none" xmlns="http://www.w3.org/2000/svg">
<g clip-path="url(#clip0_90_20)">
<path d="M11.8448 52.3686V100.807C11.8448 102.977 13.6047 104.737 15.7755 104.737H42.6416H70.1296C72.1762 104.737 74.1421 103.939 75.6095 102.513L84.7968 93.5805L93.7739 84.8527C95.2963 83.3726 96.1553 81.3395 96.1553 79.2162V41.2117V3.93044C96.1553 1.75961 94.3955 -0.000198364 92.2246 -0.000198364H54.0001H15.7755C13.6046 -0.000198364 11.8448 1.75961 11.8448 3.93044V52.3686ZM91.4714 42.1225V79.6914H80.9326H72.7521C71.4496 79.6914 70.3938 80.7473 70.3938 82.0498V89.9374V100.184H43.4613H18.8871C17.5846 100.184 16.5288 99.1276 16.5288 97.8251V52.3686V6.91199C16.5288 5.60949 17.5846 4.5536 18.8871 4.5536H54.0001H89.113C90.4155 4.5536 91.4714 5.60949 91.4714 6.91199V42.1225ZM89.5158 82.9644C89.95 82.9644 90.1325 83.2711 89.8481 83.5991C88.5674 85.0761 84.8237 88.7159 81.9572 91.5028L75.3709 97.5504C74.8668 98.0132 74.0531 97.6557 74.0531 96.9714V90.649L74.0531 85.3228C74.0531 84.0203 75.1089 82.9644 76.4114 82.9644H81.5181C84.4019 82.9644 87.8776 82.9644 89.5158 82.9644Z" fill="#410E28"/>
<path d="M30.5805 27.3227C30.5805 29.1442 31.4002 29.5996 34.0934 29.5996C36.7867 29.5996 37.6064 29.1442 37.6064 27.3227C37.6064 25.5012 36.7867 25.0458 34.0934 25.0458C31.4002 25.0458 30.5805 25.5012 30.5805 27.3227Z" fill="#410E28"/>
<path d="M44.6322 27.3227C44.6322 29.4858 45.4519 29.5996 61.0259 29.5996C76.5999 29.5996 77.4196 29.4858 77.4196 27.3227C77.4196 25.1596 76.5999 25.0458 61.0259 25.0458C45.4519 25.0458 44.6322 25.1596 44.6322 27.3227Z" fill="#410E28"/>
<path d="M30.5805 40.9841C30.5805 42.8056 31.4002 43.261 34.0934 43.261C36.7867 43.261 37.6064 42.8056 37.6064 40.9841C37.6064 39.1626 36.7867 38.7072 34.0934 38.7072C31.4002 38.7072 30.5805 39.1626 30.5805 40.9841Z" fill="#410E28"/>
<path d="M44.6322 40.9841C44.6322 43.1471 45.4519 43.261 61.0259 43.261C76.5999 43.261 77.4196 43.1471 77.4196 40.9841C77.4196 38.821 76.5999 38.7072 61.0259 38.7072C45.4519 38.7072 44.6322 38.821 44.6322 40.9841Z" fill="#410E28"/>
<path d="M30.5805 54.6455C30.5805 56.467 31.4002 56.9224 34.0934 56.9224C36.7867 56.9224 37.6064 56.467 37.6064 54.6455C37.6064 52.8239 36.7867 52.3686 34.0934 52.3686C31.4002 52.3686 30.5805 52.8239 30.5805 54.6455Z" fill="#410E28"/>
<path d="M44.6322 54.6455C44.6322 56.8085 45.4519 56.9224 61.0259 56.9224C76.5999 56.9224 77.4196 56.8085 77.4196 54.6455C77.4196 52.4824 76.5999 52.3686 61.0259 52.3686C45.4519 52.3686 44.6322 52.4824 44.6322 54.6455Z" fill="#410E28"/>
<path d="M30.5805 68.3068C30.5805 70.1284 31.4002 70.5837 34.0934 70.5837C36.7867 70.5837 37.6064 70.1284 37.6064 68.3068C37.6064 66.4853 36.7867 66.0299 34.0934 66.0299C31.4002 66.0299 30.5805 66.4853 30.5805 68.3068Z" fill="#410E28"/>
<path d="M44.6322 68.3068C44.6322 70.4699 45.4519 70.5837 61.0259 70.5837C76.5999 70.5837 77.4196 70.4699 77.4196 68.3068C77.4196 66.1438 76.5999 66.0299 61.0259 66.0299C45.4519 66.0299 44.6322 66.1438 44.6322 68.3068Z" fill="#410E28"/>
</g>
<defs>
<clipPath id="clip0_90_20">
<rect width="108" height="105" fill="white"/>
</clipPath>
</defs>
</svg>
