<svg width="119" height="119" viewBox="0 0 119 119" fill="none" xmlns="http://www.w3.org/2000/svg">
<circle cx="59.5" cy="59.5" r="59.5" fill="#FFF8F0"/>
<circle cx="59.5" cy="59.5" r="51.5" fill="#D53F31" fill-opacity="0.3"/>
<path d="M50.6257 35.5964C49.2081 35.88 48.0741 36.5887 48.0741 37.014C48.0741 37.5811 51.4763 41.5503 55.5873 45.9449C59.5566 50.4812 64.3565 55.2537 65.6323 57.0966C67.0499 58.9394 68.0621 60.4043 68.6292 59.8373C70.4721 58.1362 66.8084 52.4658 60.4293 45.6614L54.0501 38.1702H60.5489C65.794 38.1702 67.6193 38.7827 72.1556 44.7366C74.8491 48.2806 77.5379 53.5999 77.9632 55.4427C78.5302 57.2856 79.1194 58.7032 80.2535 58.7032C82.9469 58.7032 80.9316 52.1236 76.9623 46.4532C73.1348 41.2081 75.8749 40.5813 82.1123 46.1099C88.6332 51.922 92.7062 58.5615 92.7062 65.5077C92.7062 75.8561 83.3722 80.512 59.9819 80.6538C43.6795 80.6538 33.7785 78.6692 28.6752 73.9911C23.7136 69.4548 26.7561 55.5791 33.7023 49.1999C36.6792 46.6482 37.0627 46.7081 41.599 49.5432C44.1506 51.2444 47.9961 54.8284 49.839 57.0966C53.0994 61.4911 55.162 62.8142 55.162 59.979C55.162 56.8603 48.9246 49.7724 42.5455 45.8031L36.1663 41.6921L31.3465 46.2284C26.149 52.9766 23.4023 57.0966 22.5574 64.9406C22.5574 78.5495 33.3311 84.2199 59.4148 84.2199C77.8435 84.2199 87.4832 81.6682 92.5865 75.5726C100.1 66.6417 95.9888 51.6152 83.5139 42.4009C75.1501 36.3052 59.9819 33.1865 50.6257 35.5964Z" fill="#D53F31"/>
</svg>
