<svg width="116" height="116" viewBox="0 0 116 116" fill="none" xmlns="http://www.w3.org/2000/svg">
<circle cx="58" cy="58" r="58" fill="#FFF8F0"/>
<circle cx="58" cy="57" r="50" fill="#B0206B" fill-opacity="0.3"/>
<path d="M54.6563 25.7024C52.7267 28.5694 51.2493 31.7161 51.2493 32.6718C51.2493 35.3917 52.4299 38.0353 54.6563 39.2115C57.1054 40.4612 57.4023 41.7109 55.2501 41.7109C54.4337 41.7109 53.0978 42.3725 52.2814 43.1812C51.0198 44.4309 50.7971 45.607 50.7971 51.9291V59.2068L42.2624 59.5008C33.8018 59.7213 33.7276 59.7213 31.3527 62.1472C28.9778 64.4996 29.5673 64.6466 29.3447 72.2184L29.0478 79.9371H26.2318C23.7827 79.9371 24.0754 81.4074 25.6339 84.7154C27.4151 88.685 27.5677 88.7585 58.2187 88.7585C88.8696 88.7585 89.0222 88.685 90.8034 84.7154C92.3619 81.4074 92.6546 79.9371 90.2055 79.9371H87.3895L87.0926 72.2184C86.87 64.6466 87.4595 64.4996 85.0846 62.1472C82.7097 59.7213 82.6355 59.7213 74.175 59.5008L65.6402 59.2068V51.9291C65.6402 45.607 65.4176 44.4309 64.1559 43.1812C63.3395 42.3725 62.0037 41.7109 61.1873 41.7109C59.035 41.7109 59.3319 40.4612 61.781 39.2115C64.0075 38.0353 65.188 35.3917 65.188 32.6718C65.188 30.6806 59.1835 21.0562 58.2187 21.0562C57.996 21.0562 56.5859 22.8355 54.6563 25.7024ZM61.1873 28.6893C63.3395 32.3649 63.3536 34.3376 61.8693 36.3224C60.7561 37.7191 60.3275 37.1289 59.2143 35.6587L58.2187 33.9922L57.223 35.6587C56.1098 37.1289 55.6813 37.7191 54.5681 36.3224C53.9743 35.5138 53.2406 33.3334 53.2406 32.6718C53.2406 31.2751 57.3281 25.0387 58.2187 25.0387C58.5897 25.0387 60.1483 26.9985 61.1873 28.6893ZM63.1968 51.9205V59.3538H58.2187H53.2406L52.9087 52.5843C52.9087 48.7616 53.6074 44.5814 53.9043 44.2874C54.2012 43.9934 56.4725 43.4766 58.5505 43.6237L62.3339 44.2057C62.6426 44.2532 62.8747 44.5121 62.8882 44.8241L63.1968 51.9205ZM83.4411 63.868C85.8902 66.2204 85.4557 69.1309 83.0066 71.0422C80.2606 73.174 77.6631 72.9535 73.507 70.3806L70.0189 68.1752L66.6792 70.0865C64.6012 71.2627 61.8552 72.1449 59.1835 72.3654C55.3985 72.6594 54.3595 72.4389 50.5745 70.4541L46.27 68.2487L42.8561 70.3806C38.7742 72.9535 36.1767 73.174 33.4307 71.0422C30.9816 69.1309 30.5471 65.8885 32.9962 63.5361L33.5096 63.115C34.6798 62.1551 36.1465 61.6305 37.6601 61.6305H58.2187H78.5044C80.2899 61.6305 81.9978 62.36 83.2324 63.6499L83.4411 63.868ZM49.5355 72.8043C53.9884 75.1567 62.5232 75.1567 66.9761 72.8043L70.0931 71.1871L72.3938 72.8043C74.7687 74.5686 79.9638 75.0832 83.3035 73.907C84.7878 73.3189 84.9362 74.1297 84.9362 76.9231V79.9371H58.2187H31.5011V76.9231C31.5011 74.1297 31.6496 73.3189 33.2081 73.907C36.4736 75.0832 41.6686 74.5686 43.8951 72.8778C45.0083 71.9957 46.0473 71.2606 46.1958 71.2606C46.27 71.1871 47.8285 71.9222 49.5355 72.8043ZM88.647 82.5079C88.647 82.7284 88.1275 84.7175 87.4595 85.3056C86.4947 86.3348 82.784 86.4818 58.2187 86.4818C33.6534 86.4818 29.9426 86.3348 28.9778 85.3056C28.3099 84.7175 27.7904 82.7284 27.7904 82.5079C27.7904 82.3609 41.446 82.2138 58.2187 82.2138C74.9913 82.2138 88.647 82.3609 88.647 82.5079Z" fill="#B0206B"/>
</svg>
