<svg width="119" height="119" viewBox="0 0 119 119" fill="none" xmlns="http://www.w3.org/2000/svg">
<circle cx="59.5" cy="59.5" r="59.5" fill="#5D4A58"/>
<circle cx="59.5" cy="59.5" r="51.5" fill="#EFCEBA"/>
<path d="M40.8683 33.6812C34.6425 36.9772 31.438 42.1959 31.0718 49.7035C30.7056 57.3026 33.1776 62.7043 38.9456 66.8243C44.3474 70.5781 52.7705 71.1275 58.8132 68.1977L63.1163 66.0919L74.286 77.2617C84.7234 87.699 87.6532 89.8963 87.6532 87.2412C87.6532 86.6003 82.6176 81.107 76.5749 74.9728L65.4052 63.803L67.5109 59.4999C69.1589 56.1123 69.4336 54.1897 69.1589 49.4288C68.518 38.7168 60.9189 31.5755 50.1154 31.5755C46.4532 31.5755 43.7065 32.2163 40.8683 33.6812ZM58.8132 36.4279C69.342 42.379 69.2505 59.2252 58.5385 65.2679C53.4114 68.1061 46.5447 68.0146 41.2345 64.9932C30.8887 58.859 30.9803 42.2875 41.4176 36.4279C46.4532 33.5897 53.7776 33.5897 58.8132 36.4279Z" fill="#C96B3B"/>
<path d="M50.2984 36.9773C49.1082 37.252 48.1011 37.8929 48.0095 38.4422C47.7348 39.724 51.1224 39.9986 52.862 38.9C54.7846 37.7098 52.9535 36.3364 50.2984 36.9773Z" fill="#C96B3B"/>
<path d="M40.502 43.1115C36.1989 49.6119 38.4878 58.035 45.2629 61.0564C48.6505 62.5213 49.7491 62.6128 52.4043 61.7888C56.5243 60.4155 59.2709 56.8448 59.2709 52.9079C59.2709 46.0413 50.5731 42.5622 46.5447 47.6893C45.446 49.0626 44.622 50.7106 44.622 51.3515C44.622 53.3657 46.8194 52.8164 47.8265 50.5275C49.0167 47.8724 53.686 47.2315 55.334 49.5204C58.4469 53.7319 55.1509 59.4084 49.6576 59.4084C46.9109 59.4084 45.6291 58.7675 43.6149 56.4786C40.502 52.9995 40.2274 49.795 42.6994 45.1257C45.2629 40.4564 43.4318 38.7168 40.502 43.1115Z" fill="#C96B3B"/>
</svg>
