<svg width="119" height="119" viewBox="0 0 119 119" fill="none" xmlns="http://www.w3.org/2000/svg">
<circle cx="59.5" cy="59.5" r="59.5" fill="#5D4A58"/>
<circle cx="59.5" cy="59.5" r="51.5" fill="#EFCEBA"/>
<path d="M60.0747 25.6871C57.8948 26.3903 55.0117 27.6561 53.6756 28.4999C50.2299 30.6095 45.5185 35.8835 43.9715 39.4698C42.9167 41.8607 41.9322 42.8452 38.8381 44.3219C34.1267 46.6425 29.0636 51.9868 26.6024 57.2607C24.0006 62.816 23.9303 71.8873 26.3915 78.1458C28.7824 83.9823 35.1111 90.3111 40.8774 92.491C48.6126 95.4444 56.4884 95.1632 63.3094 91.7175C67.4583 89.6079 72.662 84.4042 74.7012 80.2553C76.2483 77.091 77.0921 76.1768 80.2565 74.6298C85.1789 72.2389 90.5935 66.332 92.6328 61.058C94.883 55.4324 94.883 46.7128 92.6328 41.0872C87.6401 28.4296 73.0839 21.5383 60.0747 25.6871ZM78.0063 29.5547C82.5771 31.7346 87.851 37.1493 89.9606 41.7904C91.1561 44.3219 91.5077 46.4315 91.5077 51.0726C91.5077 57.8936 90.1716 61.5503 86.1634 66.1914C83.9131 68.7229 78.7798 72.8718 77.8656 72.8718C77.6547 72.8718 77.4437 70.1996 77.3734 66.9649C77.3734 61.3393 77.4437 60.9877 78.9907 60.5658C82.4364 59.7219 82.8583 54.5183 79.5533 53.0416C78.2172 52.479 77.3734 52.479 75.967 53.0416C74.2793 53.8151 73.9277 53.6744 70.7633 50.1584C68.935 48.1192 66.5441 46.0096 65.5597 45.5173C64.5752 44.9548 63.7313 43.9 63.7313 43.1968C63.7313 41.5091 61.8327 40.7356 60.2153 41.7904C59.3012 42.3529 58.1761 42.3529 56.3477 41.8607C54.871 41.4388 51.9879 41.2278 49.9486 41.3685C47.839 41.4388 46.1514 41.3685 46.1514 41.1575C46.1514 39.9621 51.2847 33.8442 53.8866 31.9456C60.9185 26.7419 70.4117 25.8278 78.0063 29.5547ZM60.9889 46.2909C65.8409 48.5411 70.482 53.1822 72.8026 58.1046C75.4044 63.6599 75.4044 72.2389 72.8026 77.7941C70.482 82.7165 65.8409 87.3577 60.9185 89.6782C57.6838 91.2252 56.0665 91.5065 51.0738 91.5065C43.8308 91.5065 39.1194 89.6079 34.2673 84.7558C21.6801 72.1686 26.954 50.5804 43.9715 45.0954C48.7532 43.5484 56.2071 44.1109 60.9889 46.2909Z" fill="#C96B3B"/>
<path d="M67.6694 38.1338C65.4895 40.2434 67.0365 44.0406 70.0603 44.0406C73.084 44.0406 74.6311 40.2434 72.4511 38.1338C71.8886 37.5009 70.7635 37.0087 70.0603 37.0087C69.3571 37.0087 68.232 37.5009 67.6694 38.1338Z" fill="#C96B3B"/>
<path d="M78.0765 45.0251C77.3733 46.8534 78.3578 48.4004 80.0455 48.1191C81.2409 47.9785 81.6628 47.4159 81.6628 46.1502C81.6628 44.8844 81.2409 44.3219 80.0455 44.1812C79.1313 44.0406 78.2875 44.3922 78.0765 45.0251Z" fill="#C96B3B"/>
<path d="M39.8225 60.9174C39.049 61.6909 38.4161 62.9566 38.4161 63.7301C38.4161 65.5585 40.807 67.9493 42.6353 67.9493C44.4636 67.9493 46.8545 65.5585 46.8545 63.7301C46.8545 62.9566 46.2216 61.6909 45.4481 60.9174C44.6745 60.1438 43.4088 59.511 42.6353 59.511C41.8617 59.511 40.596 60.1438 39.8225 60.9174Z" fill="#C96B3B"/>
<path d="M54.1681 60.4955C53.4649 62.3238 54.4493 63.8709 56.137 63.5896C58.4576 63.3083 58.4576 59.933 56.137 59.6517C55.2229 59.5111 54.379 59.8627 54.1681 60.4955Z" fill="#C96B3B"/>
<path d="M59.2309 69.0745C57.051 71.1841 58.598 74.9813 61.6218 74.9813C63.3095 74.9813 65.1378 73.153 65.1378 71.4653C65.1378 69.7777 63.3095 67.9493 61.6218 67.9493C60.9186 67.9493 59.7935 68.4416 59.2309 69.0745Z" fill="#C96B3B"/>
<path d="M40.1038 74.5594C39.4006 76.3877 40.3851 77.9347 42.0727 77.6534C43.2682 77.5128 43.6901 76.9503 43.6901 75.6845C43.6901 74.4187 43.2682 73.8562 42.0727 73.7155C41.1586 73.5749 40.3147 73.9265 40.1038 74.5594Z" fill="#C96B3B"/>
<path d="M51.3552 80.185C50.652 82.0133 51.6365 83.5603 53.3241 83.2791C54.5196 83.1384 54.9415 82.5759 54.9415 81.3101C54.9415 80.0443 54.5196 79.4818 53.3241 79.3411C52.41 79.2005 51.5661 79.5521 51.3552 80.185Z" fill="#C96B3B"/>
</svg>
