<svg width="119" height="119" viewBox="0 0 119 119" fill="none" xmlns="http://www.w3.org/2000/svg">
<circle cx="59.5" cy="59.5" r="59.5" fill="#5D4A58"/>
<circle cx="59.5" cy="59.5001" r="51.5" fill="#E7B7C8"/>
<path d="M56.1857 28.7921C55.3063 29.6715 53.5474 30.5509 51.9915 30.8215C48.2708 31.4304 41.8441 34.0687 38.1234 36.5717C36.4322 37.7217 34.538 38.6688 33.8615 38.6688C32.3056 38.6688 28.3819 42.9984 28.3819 44.622C28.3819 45.2308 27.7731 47.3956 27.0289 49.3574C24.5259 55.8517 25.8113 61.6019 30.1408 63.1578C32.1026 63.8343 32.6438 64.5784 34.1321 68.705C35.0792 71.3433 37.3116 77.6347 39.1381 82.6407L42.3853 91.7734H59.5005H76.6157L81.6218 77.9053L86.6278 64.0372L89.2661 62.9549C94.3398 60.7901 94.678 53.281 89.875 46.1779C88.3867 43.9455 85.8837 41.1042 84.3277 39.8865C82.7718 38.6688 80.4041 36.5717 79.0511 35.1511C77.1569 33.1893 76.0745 32.5804 74.3157 32.5804C71.0009 32.5804 64.5065 30.4156 62.68 28.6568C60.6505 26.6949 58.0799 26.7626 56.1857 28.7921ZM61.7329 31.2274C62.2741 31.9716 64.3036 33.054 66.2654 33.6628C68.7008 34.4069 70.595 35.557 72.4215 37.4512C74.7216 39.8865 75.2628 40.1571 77.4952 39.8865C79.7952 39.6159 80.3364 39.8865 83.9895 43.4719C89.9426 49.2897 92.175 55.7164 89.5367 59.5048L88.522 60.993H59.5005H30.4114L29.329 59.3018C27.3672 56.3252 29.1937 47.4632 31.7644 47.4632C33.5233 47.4632 36.4998 44.3514 36.9057 42.0513C37.244 40.4954 38.191 39.5483 40.897 37.9923C45.0236 35.6246 51.5179 33.2569 53.8856 33.2569C54.7651 33.2569 56.1181 32.5128 56.9298 31.5657C58.6887 29.5362 60.4476 29.4009 61.7329 31.2274ZM76.0069 35.6923C77.1569 36.0982 77.4952 37.3159 76.5481 37.3159C76.2098 37.3159 75.3981 36.8423 74.6539 36.3011C73.3686 35.2864 74.1127 34.9481 76.0069 35.6923ZM33.7938 42.6601C32.9821 44.2161 31.832 45.0279 31.3585 44.5543C30.9526 44.2161 33.4556 41.3748 34.1321 41.3748C34.335 41.3748 34.1997 41.9836 33.7938 42.6601ZM81.0806 71.2757C79.5246 75.4699 77.4952 81.2201 76.5481 83.9937C74.7216 88.9998 74.6539 89.0674 72.2185 89.2704C70.392 89.4057 69.6479 89.2027 69.6479 88.5262C69.6479 87.985 70.4597 83.7231 71.4068 78.92C72.6921 72.6963 72.9627 70.1257 72.4215 69.5845C71.0009 68.1638 70.2567 70.1933 68.4302 79.8671L66.6037 89.4057H63.7624H60.9211L60.7182 79.3936C60.5152 71.0728 60.3799 69.4492 59.5005 69.4492C58.6211 69.4492 58.4858 71.0728 58.2828 79.3936L58.0799 89.4057H55.2386H52.3297L50.5708 79.8671C48.7443 70.1257 48.0002 68.1638 46.5795 69.5845C46.0383 70.1257 46.3089 72.6963 47.5943 78.92C48.5414 83.7231 49.3531 87.985 49.3531 88.5262C49.3531 89.2027 48.609 89.4057 46.8501 89.2704C44.3471 89.0674 44.2795 88.9998 42.4529 83.9937C41.5058 81.2201 39.4764 75.4699 37.9204 71.2757L35.2145 63.699H59.5005H83.7865L81.0806 71.2757Z" fill="#B0206B"/>
<path d="M46.3766 39.0748C43.4677 41.9837 46.7148 48.8163 50.9767 48.8163C53.6827 48.8163 54.7651 47.8015 54.7651 45.2309C54.7651 40.0896 49.3532 36.0983 46.3766 39.0748ZM50.8414 41.8484C52.1944 43.0661 52.5327 46.1103 51.2473 46.1103C49.8944 46.1103 48.0002 43.9455 48.0002 42.2543C48.0002 40.4278 49.0826 40.2248 50.8414 41.8484Z" fill="#B0206B"/>
<path d="M74.1127 47.5985C71.8126 50.8457 73.6391 56.2576 76.954 56.2576C78.9158 56.2576 80.7423 53.7546 80.7423 51.1839C80.7423 46.7868 76.3451 44.419 74.1127 47.5985ZM77.901 49.9663C78.3069 51.7928 77.7657 53.687 76.8863 53.3487C76.4128 53.2134 75.9392 52.6046 75.8716 51.9281C75.3304 49.4251 77.2922 47.5309 77.901 49.9663Z" fill="#B0206B"/>
</svg>
