<svg width="53" height="53" viewBox="0 0 53 53" fill="none" xmlns="http://www.w3.org/2000/svg">
<g clip-path="url(#clip0_138_2)">
<path d="M26.5 0.833252C21.4238 0.833252 16.4613 2.33857 12.2404 5.15885C8.01956 7.97914 4.7298 11.9877 2.78715 16.6777C0.844505 21.3675 0.336208 26.5285 1.32656 31.5072C2.3169 36.4862 4.76143 41.0593 8.35098 44.6491C11.9405 48.2386 16.5139 50.6831 21.4928 51.6735C26.4715 52.6639 31.6324 52.1554 36.3223 50.2127C41.0123 48.2701 45.0208 44.9806 47.8412 40.7597C50.6614 36.5388 52.1667 31.5765 52.1667 26.4999C52.1667 19.6927 49.4624 13.1643 44.6493 8.35086C39.8358 3.5374 33.3072 0.833252 26.5 0.833252ZM39.1088 18.4149L34.9059 38.2745C34.585 39.6862 33.7509 40.007 32.5638 39.3653L26.1471 34.617L22.9388 37.6007C22.7877 37.7981 22.5936 37.9585 22.3712 38.0698C22.1489 38.1808 21.9041 38.2398 21.6555 38.2424L22.1046 31.8258L33.9755 21.0778C34.5209 20.6287 33.9755 20.372 33.2055 20.8212L18.6396 29.9649L12.223 27.9758C10.8434 27.5587 10.8113 26.5962 12.5117 25.9545L37.248 16.3295C38.4671 15.9766 39.4938 16.6824 39.1088 18.4149Z" fill="#410E28"/>
</g>
<defs>
<clipPath id="clip0_138_2">
<rect width="53" height="53" fill="white"/>
</clipPath>
</defs>
</svg>
