<svg width="53" height="52" viewBox="0 0 53 52" fill="none" xmlns="http://www.w3.org/2000/svg">
<g clip-path="url(#clip0_138_8)">
<path d="M19.5132 0.457806C14.8877 1.96104 10.966 4.3662 7.84882 7.77352C2.41885 13.4858 0.910522 17.294 0.910522 25.6118C0.910522 33.9297 2.41885 37.7379 7.84882 43.4502C13.1782 49.1624 18.0049 51.1667 26.552 51.1667C32.2837 51.1667 34.9987 50.6657 38.1159 48.962C42.842 46.4566 47.6686 41.5461 50.283 36.6355C52.8975 31.725 52.8975 19.4987 50.283 14.5882C47.6686 9.67761 42.842 4.76706 38.1159 2.3619C33.792 0.157162 23.636 -0.94521 19.5132 0.457806ZM32.0826 12.0828C37.1103 16.9933 33.5909 25.6118 26.552 25.6118C22.4293 25.6118 18.5076 21.7034 18.5076 17.5946C18.5076 13.4858 22.4293 9.5774 26.552 9.5774C28.4626 9.5774 30.5743 10.4793 32.0826 12.0828ZM27.0548 27.9168C29.267 27.8166 31.982 27.6162 33.0881 27.4157C36.2053 26.9146 35.5014 29.9211 32.2837 31.4243L29.3676 32.8273L32.6859 36.2347C35.3003 38.8403 35.7026 39.9426 34.7976 40.8446C33.8926 41.7465 32.7865 41.2454 30.0715 38.6398L26.552 35.2325L23.0326 38.6398C20.3176 41.2454 19.2115 41.7465 18.3065 40.8446C17.4015 39.9426 17.9043 38.8403 20.5187 36.1345L23.8371 32.7271L21.3232 31.725C19.8149 31.2239 18.4071 30.2218 18.0049 29.7207C16.8988 27.8166 18.5076 26.5138 20.8204 27.3155C22.0271 27.7164 24.8426 28.017 27.0548 27.9168Z" fill="#410E28"/>
<path d="M23.5354 15.089C20.921 18.2959 24.8426 23.2064 28.362 21.0017C30.5743 19.5987 31.077 16.8928 29.5687 15.089C27.9598 13.1849 25.1443 13.1849 23.5354 15.089Z" fill="#410E28"/>
</g>
<defs>
<clipPath id="clip0_138_8">
<rect width="52" height="52" fill="white" transform="translate(0.651367)"/>
</clipPath>
</defs>
</svg>
