<svg width="53" height="52" viewBox="0 0 53 52" fill="none" xmlns="http://www.w3.org/2000/svg">
<g clip-path="url(#clip0_138_12)">
<path d="M15.6336 3.39742C8.90446 6.52206 5.87633 9.64669 2.8482 16.3423C-1.18931 25.1583 0.717293 36.7641 7.55862 44.1293C11.2597 48.1467 20.4562 52.0525 26.2882 52.0525C32.1201 52.0525 41.3167 48.1467 45.0177 44.1293C48.8309 40.0003 52.0833 31.8539 52.0833 26.3858C52.0833 20.5829 48.158 11.4322 44.1205 7.74959C39.9708 3.95539 31.7837 0.719158 26.2882 0.719158C23.26 0.719158 18.9982 1.8351 15.6336 3.39742ZM17.6524 23.596C20.1197 28.8409 22.2507 28.7293 21.4656 23.4844C20.7927 19.6902 20.9048 19.5786 23.8208 19.9134C26.2882 20.1365 26.9611 20.9177 27.1854 23.8192C27.634 28.5061 29.2041 28.5061 32.008 23.596C33.8024 20.5829 35.0361 19.6902 37.6156 19.6902C41.541 19.6902 41.6531 20.4713 38.1764 25.6047L35.4847 29.5105L38.1764 32.0771C39.6344 33.4163 40.868 34.9786 40.868 35.5365C40.868 37.0989 33.6903 36.4293 31.4472 34.7554C28.6434 32.6351 27.4097 32.6351 27.4097 34.7554C27.4097 36.7641 24.1573 36.8757 20.1197 35.0902C17.5402 33.9742 9.46522 22.9264 9.46522 20.5829C9.46522 20.1365 10.9232 19.6902 12.6055 19.6902C15.0729 19.6902 16.1944 20.4713 17.6524 23.596Z" fill="#410E28"/>
</g>
<defs>
<clipPath id="clip0_138_12">
<rect width="52" height="52" fill="white" transform="translate(0.773193)"/>
</clipPath>
</defs>
</svg>
