<svg width="53" height="52" viewBox="0 0 53 52" fill="none" xmlns="http://www.w3.org/2000/svg">
<g clip-path="url(#clip0_449_3583)">
<path d="M15.6336 3.39766C8.90446 6.5223 5.87633 9.64694 2.8482 16.3426C-1.18931 25.1585 0.717293 36.7643 7.55862 44.1295C11.2597 48.1469 20.4562 52.0527 26.2882 52.0527C32.1201 52.0527 41.3167 48.1469 45.0177 44.1295C48.8309 40.0006 52.0833 31.8542 52.0833 26.3861C52.0833 20.5832 48.158 11.4324 44.1205 7.74984C39.9708 3.95563 31.7837 0.719402 26.2882 0.719402C23.26 0.719402 18.9982 1.83534 15.6336 3.39766ZM17.6524 23.5962C20.1197 28.8411 22.2507 28.7295 21.4656 23.4846C20.7927 19.6904 20.9048 19.5788 23.8208 19.9136C26.2882 20.1368 26.9611 20.918 27.1854 23.8194C27.634 28.5064 29.2041 28.5064 32.008 23.5962C33.8024 20.5832 35.0361 19.6904 37.6156 19.6904C41.541 19.6904 41.6531 20.4716 38.1764 25.6049L35.4847 29.5107L38.1764 32.0774C39.6344 33.4165 40.868 34.9788 40.868 35.5368C40.868 37.0991 33.6903 36.4295 31.4472 34.7556C28.6434 32.6353 27.4097 32.6353 27.4097 34.7556C27.4097 36.7643 24.1573 36.8759 20.1197 35.0904C17.5402 33.9745 9.46522 22.9266 9.46522 20.5832C9.46522 20.1368 10.9232 19.6904 12.6055 19.6904C15.0729 19.6904 16.1944 20.4716 17.6524 23.5962Z" fill="#FBF5F8"/>
</g>
<defs>
<clipPath id="clip0_449_3583">
<rect width="52" height="52" fill="white" transform="translate(0.773193)"/>
</clipPath>
</defs>
</svg>
