<svg width="53" height="52" viewBox="0 0 53 52" fill="none" xmlns="http://www.w3.org/2000/svg">
<g clip-path="url(#clip0_449_3579)">
<path d="M19.5132 0.45805C14.8877 1.96128 10.966 4.36645 7.84882 7.77377C2.41885 13.486 0.910522 17.2942 0.910522 25.6121C0.910522 33.93 2.41885 37.7381 7.84882 43.4504C13.1782 49.1627 18.0049 51.167 26.5521 51.167C32.2837 51.167 34.9987 50.6659 38.1159 48.9623C42.842 46.4569 47.6686 41.5463 50.283 36.6358C52.8975 31.7252 52.8975 19.499 50.283 14.5884C47.6686 9.67786 42.842 4.76731 38.1159 2.36214C33.792 0.157404 23.636 -0.944964 19.5132 0.45805ZM32.0826 12.083C37.1103 16.9936 33.5909 25.6121 26.5521 25.6121C22.4293 25.6121 18.5076 21.7037 18.5076 17.5949C18.5076 13.486 22.4293 9.57764 26.5521 9.57764C28.4626 9.57764 30.5743 10.4796 32.0826 12.083ZM27.0548 27.917C29.267 27.8168 31.982 27.6164 33.0881 27.416C36.2053 26.9149 35.5014 29.9213 32.2837 31.4246L29.3676 32.8276L32.6859 36.2349C35.3003 38.8405 35.7026 39.9429 34.7976 40.8448C33.8926 41.7468 32.7865 41.2457 30.0715 38.6401L26.5521 35.2328L23.0326 38.6401C20.3176 41.2457 19.2115 41.7468 18.3065 40.8448C17.4015 39.9429 17.9043 38.8405 20.5187 36.1347L23.8371 32.7274L21.3232 31.7252C19.8149 31.2241 18.4071 30.222 18.0049 29.7209C16.8988 27.8168 18.5076 26.514 20.8204 27.3158C22.0271 27.7166 24.8426 28.0173 27.0548 27.917Z" fill="#FBF5F8"/>
<path d="M23.5354 15.089C20.921 18.2959 24.8426 23.2064 28.362 21.0017C30.5743 19.5987 31.077 16.8928 29.5687 15.089C27.9598 13.1849 25.1443 13.1849 23.5354 15.089Z" fill="#FBF5F8"/>
</g>
<defs>
<clipPath id="clip0_449_3579">
<rect width="52" height="52" fill="white" transform="translate(0.651367)"/>
</clipPath>
</defs>
</svg>
