<svg width="53" height="53" viewBox="0 0 53 53" fill="none" xmlns="http://www.w3.org/2000/svg">
<g clip-path="url(#clip0_449_1657)">
<path d="M26.5 0.833008C21.4238 0.833008 16.4613 2.33833 12.2404 5.15861C8.01956 7.9789 4.7298 11.9875 2.78715 16.6775C0.844505 21.3673 0.336208 26.5282 1.32656 31.5069C2.3169 36.4859 4.76143 41.0591 8.35098 44.6489C11.9405 48.2384 16.5139 50.6828 21.4928 51.6732C26.4715 52.6636 31.6324 52.1551 36.3224 50.2125C41.0123 48.2698 45.0208 44.9803 47.8412 40.7594C50.6614 36.5385 52.1667 31.5762 52.1667 26.4997C52.1667 19.6925 49.4624 13.164 44.6493 8.35061C39.8358 3.53715 33.3072 0.833008 26.5 0.833008ZM39.1088 18.4147L34.9059 38.2743C34.585 39.6859 33.7509 40.0068 32.5638 39.3651L26.1471 34.6168L22.9388 37.6005C22.7877 37.7978 22.5936 37.9582 22.3712 38.0696C22.1489 38.1806 21.9041 38.2396 21.6555 38.2422L22.1046 31.8255L33.9755 21.0776C34.5209 20.6284 33.9755 20.3718 33.2055 20.8209L18.6396 29.9647L12.223 27.9755C10.8434 27.5584 10.8113 26.5959 12.5117 25.9543L37.248 16.3293C38.4671 15.9763 39.4938 16.6822 39.1088 18.4147Z" fill="#FBF5F8"/>
</g>
<defs>
<clipPath id="clip0_449_1657">
<rect width="53" height="53" fill="white"/>
</clipPath>
</defs>
</svg>
