<svg width="119" height="119" viewBox="0 0 119 119" fill="none" xmlns="http://www.w3.org/2000/svg">
<circle cx="59.5" cy="59.5" r="59.5" fill="#5D4A58"/>
<circle cx="59.5" cy="59.5001" r="51.5" fill="#F2C1B7"/>
<path d="M48.9684 36.8296C38.7886 39.4517 30.5368 44.6187 24.3673 52.0221C21.2825 55.801 20.8198 56.8035 21.1283 58.8857C21.591 61.7392 30.3055 75.852 32.7733 77.8571C35.2411 79.8622 47.3489 82.4843 56.3718 82.8699C64.7007 83.2555 74.1093 82.0987 82.4382 79.6309C86.217 78.4741 86.7569 78.0113 90.073 72.8443C96.3968 62.9731 98.3248 58.9629 97.7849 56.8035C96.9366 53.4103 87.4509 44.4644 81.2814 41.2254C70.4076 35.5186 59.4566 34.0533 48.9684 36.8296ZM71.7957 40.5313C78.8136 42.9992 83.9806 45.9297 87.9908 49.8628C92.2323 53.873 92.7722 55.9552 90.2272 58.5001C88.8391 59.8883 87.9137 60.1197 83.595 59.8112C79.4305 59.5798 77.9653 59.8112 75.0347 61.2764C71.1016 63.2815 66.7058 63.5129 62.3871 61.9705C59.9193 61.1222 58.9939 61.1222 56.6032 61.9705C52.2074 63.5129 47.8116 63.2815 43.8785 61.2764C40.948 59.8112 39.4827 59.5798 35.3182 59.8112C30.9996 60.1197 30.0741 59.8883 28.686 58.5001C26.2953 56.1094 26.6809 54.1815 30.1512 50.4026C34.4699 45.6983 45.0353 40.4542 53.2871 38.8347C57.0659 38.1406 67.6313 39.0661 71.7957 40.5313ZM27.9148 61.8163C29.6114 62.8188 31.5394 63.1273 35.0098 62.9731C38.5573 62.896 40.6395 63.2044 43.2615 64.4383C47.1946 66.3663 52.2845 66.5206 56.6032 65.0553C58.9939 64.207 59.9193 64.207 62.3871 65.0553C66.6287 66.5206 71.7186 66.3663 75.6517 64.4383C78.2737 63.2044 80.356 62.896 83.9035 62.9731C89.1476 63.2044 92.6179 61.7392 94.0832 58.8857C94.4688 57.9603 94.8544 57.6518 94.8544 58.1145C94.9315 59.1171 85.9857 74.1554 84.5975 75.3122C82.5924 76.9317 71.333 79.3224 63.3126 79.7851C54.9066 80.2478 47.1175 79.3995 39.0971 77.163L34.5471 75.9291L29.3029 67.7545C26.3724 63.2815 23.9817 59.04 24.0588 58.423C24.0588 57.6518 24.3673 57.8061 24.83 58.8857C25.2927 59.7341 26.6809 61.1222 27.9148 61.8163Z" fill="#D53F31"/>
<path d="M46.8861 45.7754C45.2666 47.2407 44.881 48.0119 45.4979 48.6288C46.6547 49.7856 50.5878 47.472 50.5878 45.6212C50.5878 43.539 49.1997 43.6161 46.8861 45.7754Z" fill="#D53F31"/>
<path d="M68.1708 45.0043C67.8623 45.8526 68.325 46.778 69.5589 47.7034C73.1835 50.5569 75.3429 48.8602 72.0268 45.7755C69.5589 43.4619 68.8649 43.3076 68.1708 45.0043Z" fill="#D53F31"/>
<path d="M58.0685 50.0943C58.2227 52.4078 58.6854 53.4104 59.4566 53.4104C60.2278 53.4104 60.6905 52.4078 60.8448 50.0943C61.0761 47.2408 60.9219 46.8553 59.4566 46.8553C57.9914 46.8553 57.8371 47.2408 58.0685 50.0943Z" fill="#D53F31"/>
</svg>
