<svg width="33" height="34" viewBox="0 0 33 34" fill="none" xmlns="http://www.w3.org/2000/svg">
<path d="M19.2506 3.30326L20.562 2.64754C20.5871 2.63502 20.5836 2.59826 20.5567 2.59056L19.6935 2.34393C18.8949 2.11576 18.0684 2 17.2378 2C16.4433 2 15.6524 2.10592 14.8859 2.31497L12.6734 2.91837L11.9626 3.20268C10.4059 3.82539 8.95965 4.69501 7.67967 5.77807L7.50885 5.92261C6.26713 6.9733 5.21379 8.22817 4.3942 9.63319C3.79359 10.6628 3.32409 11.7635 2.99662 12.9096L2.74279 13.798C2.42598 14.9069 2.26526 16.0544 2.26526 17.2076C2.26526 18.8884 2.60666 20.5517 3.26876 22.0966L3.53433 22.7163C3.91198 23.5975 4.37548 24.451 4.90726 25.2487C5.98604 26.8669 7.36202 28.2936 8.94456 29.424L9.56342 29.866C10.4083 30.4696 11.3314 30.9554 12.3072 31.3102C13.5621 31.7666 14.8871 32 16.2224 32H16.9071C18.1615 32 19.4113 31.8462 20.6283 31.5419L21.3958 31.35C22.9165 30.9698 24.3605 30.3311 25.6647 29.4616C26.7935 28.7091 27.804 27.7928 28.6631 26.7428L29.1078 26.1993C29.7802 25.3774 30.3231 24.4575 30.7175 23.4715C30.7242 23.4548 30.708 23.4381 30.6911 23.4441L28.1883 24.338C27.0373 24.7491 25.8242 24.9592 24.6019 24.9592C23.1942 24.9592 21.8003 24.6804 20.5008 24.139L20.2526 24.0355C19.2857 23.6327 18.377 23.1028 17.5502 22.4597L17.4942 22.4161C16.5315 21.6674 15.6959 20.7684 15.0194 19.7537L14.9233 19.6095C14.0468 18.2947 13.4758 16.8003 13.2523 15.236L13.2308 15.0853C13.0647 13.9224 13.1101 12.739 13.3649 11.5922C13.5157 10.9136 13.7387 10.2531 14.03 9.62197L14.8516 7.84186C15.2342 7.0128 15.7338 6.24292 16.3351 5.55574C17.1515 4.62275 18.1417 3.85768 19.2506 3.30326Z" fill="#410E28" stroke="#410E28" stroke-width="1.22449"/>
</svg>
