<svg width="33" height="35" viewBox="0 0 33 35" fill="none" xmlns="http://www.w3.org/2000/svg">
<path d="M19.4951 2.41911L20.9231 1.7051C20.9504 1.69146 20.9467 1.65143 20.9174 1.64306L19.9774 1.3745C19.1078 1.12605 18.2079 1 17.3035 1C16.4384 1 15.5771 1.11534 14.7425 1.34297L12.3333 2L11.5594 2.30958C9.86421 2.98765 8.28945 3.93457 6.8957 5.1139L6.70969 5.27129C5.35759 6.41537 4.21062 7.78179 3.31818 9.3117C2.66418 10.4328 2.15295 11.6313 1.79638 12.8793L1.51998 13.8467C1.17501 15.0541 1 16.3037 1 17.5594C1 19.3896 1.37175 21.2007 2.0927 22.883L2.38188 23.5577C2.7931 24.5172 3.29779 25.4467 3.87685 26.3153C5.05151 28.0773 6.5498 29.6308 8.27302 30.8617L8.94689 31.343C9.86691 32.0002 10.872 32.5292 11.9346 32.9156C13.301 33.4125 14.7438 33.6667 16.1978 33.6667H16.9433C18.3093 33.6667 19.6701 33.4991 20.9953 33.1678L21.8311 32.9589C23.4869 32.5449 25.0593 31.8494 26.4794 30.9026C27.7085 30.0832 28.8089 29.0855 29.7443 27.9422L30.2285 27.3504C30.9607 26.4554 31.5519 25.4537 31.9813 24.38C31.9886 24.3619 31.971 24.3437 31.9526 24.3503L29.2273 25.3236C27.974 25.7712 26.653 26 25.3222 26C23.7892 26 22.2715 25.6964 20.8565 25.1069L20.5862 24.9942C19.5334 24.5556 18.5439 23.9786 17.6436 23.2784L17.5826 23.2309C16.5344 22.4156 15.6245 21.4367 14.8879 20.3318L14.7832 20.1748C13.8287 18.7431 13.207 17.1159 12.9637 15.4125L12.9403 15.2484C12.7594 13.9821 12.8088 12.6936 13.0863 11.4449C13.2505 10.706 13.4933 9.98675 13.8105 9.29949L14.7051 7.36113C15.1218 6.45838 15.6658 5.62006 16.3205 4.8718C17.2094 3.85588 18.2877 3.02281 19.4951 2.41911Z" fill="#410E28" stroke="#410E28" stroke-width="1.33333"/>
</svg>
