<svg width="26" height="25" viewBox="0 0 26 25" fill="none" xmlns="http://www.w3.org/2000/svg">
<path d="M5.494 22.891L0.658001 12.79C0.528 12.504 0.515 12.205 0.619001 11.893C0.723 11.581 0.918 11.36 1.204 11.23C1.49 11.1 1.776 11.087 2.062 11.191C2.374 11.295 2.595 11.49 2.725 11.776L7.795 22.384C7.795 22.41 7.821 22.423 7.873 22.423C7.925 22.423 7.951 22.41 7.951 22.384C12.397 14.688 17.454 7.577 23.122 1.051C23.33 0.816998 23.59 0.699998 23.902 0.699998C24.24 0.673998 24.526 0.764999 24.76 0.972999C24.994 1.181 25.124 1.454 25.15 1.792C25.176 2.104 25.085 2.377 24.877 2.611C19.313 9.007 14.438 15.793 10.252 22.969C9.706 23.905 8.9 24.373 7.834 24.373C6.742 24.373 5.962 23.879 5.494 22.891Z" fill="#410E28"/>
</svg>
