<svg width="97" height="77" viewBox="0 0 97 77" fill="none" xmlns="http://www.w3.org/2000/svg">
<path d="M13.2997 26.5209C13.2997 25.6424 13.4659 24.8233 13.7984 24.0635C14.1308 23.2918 14.5819 22.621 15.1517 22.0512C15.7216 21.4813 16.3923 21.0302 17.164 20.6978C17.9357 20.3654 18.7548 20.1992 19.6215 20.1992C20.5 20.1992 21.3191 20.3654 22.0789 20.6978C22.8506 21.0302 23.5214 21.4813 24.0912 22.0512C24.6611 22.621 25.1122 23.2918 25.4446 24.0635C25.777 24.8233 25.9432 25.6424 25.9432 26.5209C25.9432 27.3876 25.777 28.2067 25.4446 28.9784C25.1122 29.7501 24.6611 30.4208 24.0912 30.9907C23.5214 31.5605 22.8506 32.0116 22.0789 32.344C21.3191 32.6765 20.5 32.8427 19.6215 32.8427C18.7548 32.8427 17.9357 32.6765 17.164 32.344C16.3923 32.0116 15.7216 31.5605 15.1517 30.9907C14.5819 30.4208 14.1308 29.7501 13.7984 28.9784C13.4659 28.2067 13.2997 27.3876 13.2997 26.5209ZM15.6504 29.2099C16.1134 29.8985 16.6535 30.4742 17.2709 30.9372C17.9001 31.4002 18.5471 31.7326 19.2119 31.9345C19.8767 32.1363 20.5415 32.2016 21.2064 32.1304C21.8712 32.0591 22.4766 31.8395 23.0227 31.4715C23.5689 31.1034 23.9903 30.6286 24.2871 30.0469C24.5839 29.4533 24.756 28.8122 24.8035 28.1236C24.8629 27.4232 24.7857 26.699 24.572 25.9511C24.3702 25.2032 24.0378 24.4849 23.5748 23.7964C23.1118 23.1197 22.5716 22.5498 21.9543 22.0868C21.3488 21.6238 20.7137 21.2914 20.0489 21.0896C19.3959 20.8878 18.737 20.8225 18.0722 20.8937C17.4193 20.9531 16.8197 21.1727 16.2736 21.5526C15.7275 21.9206 15.2942 22.4014 14.9737 22.995C14.665 23.5886 14.481 24.2356 14.4216 24.936C14.3741 25.6246 14.4513 26.3429 14.6531 27.0908C14.8549 27.8268 15.1874 28.5332 15.6504 29.2099ZM31.9902 20.2704L31.9011 20.6088C31.8062 20.5494 31.7171 20.5019 31.634 20.4663C31.5509 20.4307 31.45 20.4129 31.3313 20.4129C31.0464 20.4129 30.8267 20.5079 30.6724 20.6978C30.5181 20.8759 30.5003 21.1371 30.619 21.4814L33.6997 30.6701C33.5929 30.9788 33.4979 31.2696 33.4148 31.5427C33.3317 31.7801 33.2486 32.0235 33.1655 32.2728C33.0943 32.5103 33.0408 32.6943 33.0052 32.8249L29.1409 21.3567C29.046 21.0718 28.951 20.8462 28.856 20.68C28.7729 20.5019 28.6126 20.4129 28.3752 20.4129C28.2684 20.4129 28.1675 20.4307 28.0725 20.4663C27.9894 20.5019 27.9003 20.5494 27.8054 20.6088L27.7163 20.2704H31.9902ZM38.2585 20.2882L38.1694 20.6088C38.0745 20.5494 37.9854 20.5079 37.9023 20.4841C37.8192 20.4485 37.7243 20.4307 37.6174 20.4307C37.4156 20.4307 37.2494 20.496 37.1188 20.6266C36.9882 20.7572 36.8754 20.9768 36.7804 21.2855L36.3531 21.4814L36.6558 20.2882H37.3147H38.2585ZM36.3887 21.3211L37.0476 20.4663L33.4326 31.4893H33.2367L36.3887 21.3211ZM35.2312 20.2882H37.101L36.6914 21.4635L36.3887 21.3211C36.4837 21.0124 36.4718 20.7868 36.3531 20.6444C36.2343 20.5019 36.0741 20.4307 35.8723 20.4307C35.7417 20.4307 35.6289 20.4544 35.5339 20.5019C35.4389 20.5494 35.3677 20.585 35.3202 20.6088L35.2312 20.2882ZM41.4351 32.7536V20.2882H42.8419V32.4509V32.7536H41.4351ZM41.4351 20.6622V20.2882H47.8815V20.6622H41.4351ZM46.7062 20.2882H48.0952L47.1335 24.4909L46.7418 24.3128C46.813 24.2415 46.8783 24.1406 46.9377 24.01C46.997 23.8676 47.0504 23.7251 47.0979 23.5827C47.1573 23.4283 47.2048 23.2799 47.2404 23.1375C47.276 22.9831 47.2997 22.8644 47.3116 22.7813C47.4066 22.2946 47.3888 21.9147 47.2582 21.6416C47.1276 21.3567 46.9436 21.143 46.7062 21.0005C46.4806 20.8581 46.2253 20.769 45.9404 20.7334C45.6555 20.6859 45.4003 20.6622 45.1747 20.6622L46.7062 20.2882ZM40.0461 20.2882H40.9721H41.2214H44.2309L44.1597 20.6622H43.6432C43.4533 20.6622 43.2693 20.6919 43.0912 20.7512C42.925 20.8106 42.8419 21.0065 42.8419 21.3389C42.8419 21.5051 42.7707 21.5763 42.6282 21.5526C42.4976 21.5288 42.3314 21.4873 42.1296 21.4279C41.9396 21.4873 41.7734 21.5288 41.631 21.5526C41.5004 21.5763 41.4351 21.5051 41.4351 21.3389C41.4351 21.1846 41.4173 21.054 41.3817 20.9471C41.346 20.8403 41.2985 20.7512 41.2392 20.68C41.1561 20.585 41.067 20.5197 40.9721 20.4841C40.889 20.4485 40.794 20.4307 40.6872 20.4307C40.5803 20.4307 40.4853 20.4485 40.4022 20.4841C40.3191 20.5079 40.2301 20.5494 40.1351 20.6088L40.0461 20.2882ZM42.272 25.862H45.0322V26.2538L42.272 26.1648V25.862ZM45.1925 23.7073L46.6527 28.2127H46.2966C46.2728 27.7971 46.2194 27.4588 46.1363 27.1976C46.0651 26.9364 45.9582 26.7346 45.8158 26.5922C45.6733 26.4497 45.4893 26.3547 45.2637 26.3072C45.0382 26.2597 44.7651 26.236 44.4446 26.236V25.862C44.9788 25.862 45.2993 25.6899 45.4062 25.3456C45.513 25.0013 45.329 24.5443 44.8542 23.9744L45.1925 23.7073ZM41.4351 32.3797H48.7362V32.7536H41.4351V32.3797ZM47.5609 32.7536L46.0295 32.3797C46.255 32.3797 46.5103 32.3619 46.7952 32.3262C47.0801 32.2788 47.3354 32.1838 47.5609 32.0413C47.7984 31.8989 47.9824 31.6852 48.113 31.4002C48.2436 31.1153 48.2614 30.7354 48.1664 30.2605C48.1545 30.1774 48.1308 30.0647 48.0952 29.9222C48.0595 29.7679 48.0121 29.6195 47.9527 29.477C47.9052 29.3227 47.8518 29.1802 47.7924 29.0496C47.7331 28.9072 47.6678 28.8003 47.5965 28.7291L47.9883 28.551L48.9499 32.7536H47.5609ZM40.0461 32.7536L40.1351 32.4331C40.2301 32.4924 40.3191 32.5399 40.4022 32.5755C40.4853 32.5993 40.5803 32.6112 40.6872 32.6112C40.794 32.6112 40.889 32.5934 40.9721 32.5577C41.067 32.5221 41.1561 32.4568 41.2392 32.3619C41.2985 32.2906 41.346 32.2016 41.3817 32.0947C41.4173 31.9879 41.4351 31.8573 41.4351 31.703C41.4351 31.5368 41.5004 31.4655 41.631 31.4893C41.7734 31.513 41.9396 31.5546 42.1296 31.6139C42.3314 31.5546 42.4976 31.513 42.6282 31.4893C42.7707 31.4655 42.8419 31.5368 42.8419 31.703C42.8419 32.0354 42.925 32.2313 43.0912 32.2906C43.2693 32.35 43.4533 32.3797 43.6432 32.3797H44.1597L44.2309 32.7536H41.2214H40.9721H40.0461ZM60.7317 32.7536L51.6319 20.2882H53.0387L60.7317 31.0797V32.7536ZM60.7317 32.7536L60.3577 32.0235V20.2882H60.7317V32.7536ZM62.0316 20.6088C61.9367 20.5494 61.8476 20.5079 61.7645 20.4841C61.6814 20.4485 61.5864 20.4307 61.4796 20.4307C61.2422 20.4307 61.0581 20.5138 60.9276 20.68C60.797 20.8343 60.7317 21.054 60.7317 21.3389C60.7317 21.3508 60.7139 21.3567 60.6782 21.3567C60.6545 21.3567 60.6248 21.327 60.5892 21.2677C60.5536 21.1964 60.518 21.0896 60.4824 20.9471C60.4586 20.7928 60.4467 20.5732 60.4467 20.2882H62.1207L62.0316 20.6088ZM59.0577 20.6088L58.9687 20.2882H60.6426C60.6426 20.5732 60.6248 20.7928 60.5892 20.9471C60.5655 21.0896 60.5358 21.1964 60.5002 21.2677C60.4646 21.327 60.4289 21.3567 60.3933 21.3567C60.3696 21.3567 60.3577 21.3508 60.3577 21.3389C60.3577 21.054 60.2924 20.8343 60.1618 20.68C60.0312 20.5138 59.8472 20.4307 59.6098 20.4307C59.5029 20.4307 59.408 20.4485 59.3249 20.4841C59.2418 20.5079 59.1527 20.5494 59.0577 20.6088ZM52.5045 20.2882V32.7536H52.1305V20.2882H52.5045ZM53.8045 32.4331L53.8935 32.7536H52.2196C52.2196 32.4687 52.2315 32.255 52.2552 32.1125C52.2908 31.9582 52.3264 31.8514 52.362 31.792C52.3977 31.7208 52.4273 31.6852 52.4511 31.6852C52.4867 31.6852 52.5045 31.6911 52.5045 31.703C52.5045 31.9879 52.5698 32.2135 52.7004 32.3797C52.831 32.534 53.015 32.6112 53.2524 32.6112C53.3593 32.6112 53.4543 32.5993 53.5374 32.5755C53.6205 32.5399 53.7095 32.4924 53.8045 32.4331ZM50.8306 32.4331C50.9256 32.4924 51.0146 32.5399 51.0977 32.5755C51.1808 32.5993 51.2758 32.6112 51.3826 32.6112C51.6201 32.6112 51.8041 32.534 51.9347 32.3797C52.0653 32.2135 52.1305 31.9879 52.1305 31.703C52.1305 31.6911 52.1424 31.6852 52.1662 31.6852C52.2018 31.6852 52.2374 31.7208 52.273 31.792C52.3086 31.8514 52.3383 31.9582 52.362 32.1125C52.3977 32.255 52.4155 32.4687 52.4155 32.7536H50.7415L50.8306 32.4331ZM50.8128 20.6088L50.7237 20.2882H52.3977C52.3977 20.5732 52.3917 20.7809 52.3799 20.9115C52.368 21.0421 52.362 21.1311 52.362 21.1786C52.3383 21.2261 52.3205 21.238 52.3086 21.2142C52.2611 21.1549 52.2077 21.0836 52.1484 21.0005C52.089 20.9056 52.0178 20.8165 51.9347 20.7334C51.8634 20.6503 51.7803 20.5791 51.6854 20.5197C51.5904 20.4604 51.4835 20.4307 51.3648 20.4307C51.258 20.4307 51.163 20.4485 51.0799 20.4841C50.9968 20.5079 50.9078 20.5494 50.8128 20.6088ZM60.7317 32.7536L51.6319 20.2882H53.0387L60.7317 31.0797V32.7536ZM60.7317 32.7536L60.3577 32.0235V20.2882H60.7317V32.7536ZM62.0316 20.6088C61.9367 20.5494 61.8476 20.5079 61.7645 20.4841C61.6814 20.4485 61.5864 20.4307 61.4796 20.4307C61.2422 20.4307 61.0581 20.5138 60.9276 20.68C60.797 20.8343 60.7317 21.054 60.7317 21.3389C60.7317 21.3508 60.7139 21.3567 60.6782 21.3567C60.6545 21.3567 60.6248 21.327 60.5892 21.2677C60.5536 21.1964 60.518 21.0896 60.4824 20.9471C60.4586 20.7928 60.4467 20.5732 60.4467 20.2882H62.1207L62.0316 20.6088ZM59.0577 20.6088L58.9687 20.2882H60.6426C60.6426 20.5732 60.6248 20.7928 60.5892 20.9471C60.5655 21.0896 60.5358 21.1964 60.5002 21.2677C60.4646 21.327 60.4289 21.3567 60.3933 21.3567C60.3696 21.3567 60.3577 21.3508 60.3577 21.3389C60.3577 21.054 60.2924 20.8343 60.1618 20.68C60.0312 20.5138 59.8472 20.4307 59.6098 20.4307C59.5029 20.4307 59.408 20.4485 59.3249 20.4841C59.2418 20.5079 59.1527 20.5494 59.0577 20.6088ZM52.5045 20.2882V32.7536H52.1305V20.2882H52.5045ZM53.8045 32.4331L53.8935 32.7536H52.2196C52.2196 32.4687 52.2315 32.255 52.2552 32.1125C52.2908 31.9582 52.3264 31.8514 52.362 31.792C52.3977 31.7208 52.4273 31.6852 52.4511 31.6852C52.4867 31.6852 52.5045 31.6911 52.5045 31.703C52.5045 31.9879 52.5698 32.2135 52.7004 32.3797C52.831 32.534 53.015 32.6112 53.2524 32.6112C53.3593 32.6112 53.4543 32.5993 53.5374 32.5755C53.6205 32.5399 53.7095 32.4924 53.8045 32.4331ZM50.8306 32.4331C50.9256 32.4924 51.0146 32.5399 51.0977 32.5755C51.1808 32.5993 51.2758 32.6112 51.3826 32.6112C51.6201 32.6112 51.8041 32.534 51.9347 32.3797C52.0653 32.2135 52.1305 31.9879 52.1305 31.703C52.1305 31.6911 52.1424 31.6852 52.1662 31.6852C52.2018 31.6852 52.2374 31.7208 52.273 31.792C52.3086 31.8514 52.3383 31.9582 52.362 32.1125C52.3977 32.255 52.4155 32.4687 52.4155 32.7536H50.7415L50.8306 32.4331ZM50.8128 20.6088L50.7237 20.2882H52.3977C52.3977 20.5732 52.3917 20.7809 52.3799 20.9115C52.368 21.0421 52.362 21.1311 52.362 21.1786C52.3383 21.2261 52.3205 21.238 52.3086 21.2142C52.2611 21.1549 52.2077 21.0836 52.1484 21.0005C52.089 20.9056 52.0178 20.8165 51.9347 20.7334C51.8634 20.6503 51.7803 20.5791 51.6854 20.5197C51.5904 20.4604 51.4835 20.4307 51.3648 20.4307C51.258 20.4307 51.163 20.4485 51.0799 20.4841C50.9968 20.5079 50.9078 20.5494 50.8128 20.6088ZM65.2946 20.2882H66.7014V20.591V32.7536H65.2946V20.2882ZM63.9056 20.2882H68.0904L68.0014 20.6088C67.9064 20.5494 67.8174 20.5079 67.7343 20.4841C67.6512 20.4485 67.5562 20.4307 67.4493 20.4307C67.2475 20.4307 67.0694 20.5019 66.9151 20.6444C66.7726 20.775 66.7014 21.0065 66.7014 21.3389C66.7014 21.5051 66.6302 21.5763 66.4877 21.5526C66.3571 21.5288 66.1909 21.4873 65.9891 21.4279C65.7992 21.4873 65.633 21.5288 65.4905 21.5526C65.3599 21.5763 65.2946 21.5051 65.2946 21.3389C65.2946 21.1846 65.2768 21.054 65.2412 20.9471C65.2056 20.8403 65.1581 20.7512 65.0987 20.68C65.0275 20.585 64.9444 20.5197 64.8494 20.4841C64.7544 20.4485 64.6535 20.4307 64.5467 20.4307C64.4398 20.4307 64.3449 20.4485 64.2618 20.4841C64.1787 20.5079 64.0896 20.5494 63.9946 20.6088L63.9056 20.2882ZM65.2946 20.2882H66.7014V20.591V32.7536H65.2946V20.2882ZM63.9056 20.2882H68.0904L68.0014 20.6088C67.9064 20.5494 67.8174 20.5079 67.7343 20.4841C67.6512 20.4485 67.5562 20.4307 67.4493 20.4307C67.2475 20.4307 67.0694 20.5019 66.9151 20.6444C66.7726 20.775 66.7014 21.0065 66.7014 21.3389C66.7014 21.5051 66.6302 21.5763 66.4877 21.5526C66.3571 21.5288 66.1909 21.4873 65.9891 21.4279C65.7992 21.4873 65.633 21.5288 65.4905 21.5526C65.3599 21.5763 65.2946 21.5051 65.2946 21.3389C65.2946 21.1846 65.2768 21.054 65.2412 20.9471C65.2056 20.8403 65.1581 20.7512 65.0987 20.68C65.0275 20.585 64.9444 20.5197 64.8494 20.4841C64.7544 20.4485 64.6535 20.4307 64.5467 20.4307C64.4398 20.4307 64.3449 20.4485 64.2618 20.4841C64.1787 20.5079 64.0896 20.5494 63.9946 20.6088L63.9056 20.2882ZM65.2946 32.3797V32.7536V32.3797ZM65.2946 32.3797H72.5958V32.7536H65.2946V32.3797ZM71.4205 32.7536L69.889 32.3797C70.1146 32.3797 70.3698 32.3619 70.6547 32.3262C70.9397 32.2788 71.1949 32.1838 71.4205 32.0413C71.6579 31.8989 71.8419 31.6852 71.9725 31.4002C72.1031 31.1153 72.1209 30.7354 72.0259 30.2605C72.014 30.1774 71.9903 30.0647 71.9547 29.9222C71.9191 29.7679 71.8716 29.6195 71.8122 29.477C71.7647 29.3227 71.7113 29.1802 71.652 29.0496C71.5926 28.9072 71.5273 28.8003 71.4561 28.7291L71.8478 28.551L72.8095 32.7536H71.4205ZM78.8571 20.306L78.7681 20.6444C78.6731 20.585 78.5841 20.5375 78.501 20.5019C78.4179 20.4663 78.317 20.4485 78.1982 20.4485C77.9133 20.4485 77.6937 20.5435 77.5393 20.7334C77.385 20.9115 77.3672 21.1727 77.4859 21.517L79.605 27.8565L78.9105 30.029L76.0079 21.3923C75.9129 21.1074 75.8179 20.8818 75.723 20.7156C75.6399 20.5375 75.4796 20.4485 75.2422 20.4485C75.1353 20.4485 75.0344 20.4663 74.9394 20.5019C74.8563 20.5375 74.7673 20.585 74.6723 20.6444L74.5833 20.306H78.8571ZM83.2378 20.2882L83.1488 20.6444C83.0538 20.585 82.9648 20.5435 82.8817 20.5197C82.7986 20.4841 82.7036 20.4663 82.5967 20.4663C82.3949 20.4663 82.2228 20.5316 82.0803 20.6622C81.9497 20.7928 81.8369 21.0124 81.742 21.3211L81.3324 21.517L81.6351 20.2882H82.294H83.2378ZM81.368 21.3567L82.0091 20.5019L78.8393 30.2249L78.6256 30.2071L81.368 21.3567ZM80.2105 20.2882H82.0803L81.6707 21.4992L81.368 21.3567C81.463 21.048 81.4511 20.8225 81.3324 20.68C81.2137 20.5375 81.0534 20.4663 80.8516 20.4663C80.721 20.4663 80.6082 20.4901 80.5132 20.5375C80.4183 20.585 80.347 20.6206 80.2995 20.6444L80.2105 20.2882ZM78.1982 32.7536V27.9099H79.605V32.4509V32.7536H78.1982ZM76.8092 32.7536L76.8983 32.4331C76.9932 32.4924 77.0823 32.5399 77.1654 32.5755C77.2485 32.5993 77.3435 32.6112 77.4503 32.6112C77.5572 32.6112 77.6581 32.5934 77.753 32.5577C77.848 32.5221 77.9311 32.4568 78.0023 32.3619C78.0617 32.2906 78.1092 32.2016 78.1448 32.0947C78.1804 31.9879 78.1982 31.8573 78.1982 31.703C78.1982 31.5368 78.2635 31.4655 78.3941 31.4893C78.5366 31.513 78.7028 31.5546 78.8927 31.6139C79.0946 31.5546 79.2608 31.513 79.3914 31.4893C79.5338 31.4655 79.605 31.5368 79.605 31.703C79.605 32.0354 79.6763 32.2728 79.8187 32.4153C79.9731 32.5459 80.1511 32.6112 80.353 32.6112C80.4598 32.6112 80.5548 32.5993 80.6379 32.5755C80.721 32.5399 80.81 32.4924 80.905 32.4331L80.994 32.7536H76.8092ZM83.2378 20.2882L83.1488 20.6444C83.0538 20.585 82.9648 20.5435 82.8817 20.5197C82.7986 20.4841 82.7036 20.4663 82.5967 20.4663C82.3949 20.4663 82.2228 20.5316 82.0803 20.6622C81.9497 20.7928 81.8369 21.0124 81.742 21.3211L81.3324 21.517L81.6351 20.2882H82.294H83.2378ZM81.368 21.3567L82.0091 20.5019L78.8393 30.2249L78.6256 30.2071L81.368 21.3567ZM80.2105 20.2882H82.0803L81.6707 21.4992L81.368 21.3567C81.463 21.048 81.4511 20.8225 81.3324 20.68C81.2137 20.5375 81.0534 20.4663 80.8516 20.4663C80.721 20.4663 80.6082 20.4901 80.5132 20.5375C80.4183 20.585 80.347 20.6206 80.2995 20.6444L80.2105 20.2882ZM5.23084 45.1319C5.23084 46.0817 5.39705 46.9839 5.72946 47.8387C6.07374 48.6816 6.5308 49.4236 7.10065 50.0647C7.6705 50.6939 8.32344 51.1984 9.0595 51.5783C9.80742 51.9463 10.5791 52.1304 11.3745 52.1304C11.9562 52.1304 12.4786 52.0413 12.9416 51.8632C13.4164 51.6733 13.832 51.424 14.1881 51.1153C14.5443 50.8066 14.8411 50.4505 15.0785 50.0469C15.3159 49.6313 15.4881 49.198 15.5949 48.7469C15.5831 48.7469 15.6127 48.7469 15.684 48.7469C15.7671 48.735 15.8561 48.7291 15.9511 48.7291C16.0579 48.7291 16.1826 48.7291 16.325 48.7291C16.0995 49.3227 15.7908 49.8688 15.399 50.3674C15.0073 50.8541 14.5561 51.2756 14.0457 51.6317C13.5352 51.9879 12.9713 52.2669 12.3539 52.4687C11.7485 52.6705 11.1074 52.7714 10.4307 52.7714C9.56405 52.7714 8.74489 52.6052 7.97323 52.2728C7.20156 51.9404 6.5308 51.4893 5.96096 50.9194C5.39111 50.3496 4.93998 49.6788 4.60757 48.9072C4.27516 48.1355 4.10896 47.3163 4.10896 46.4497C4.10896 45.5712 4.27516 44.752 4.60757 43.9922C4.93998 43.2206 5.39111 42.5498 5.96096 41.98C6.5308 41.4101 7.20156 40.959 7.97323 40.6266C8.74489 40.2942 9.56405 40.128 10.4307 40.128C11.1193 40.128 11.7722 40.2348 12.3895 40.4485C13.0187 40.6503 13.5886 40.9352 14.0991 41.3033C14.6214 41.6713 15.0785 42.1165 15.4703 42.6389C15.862 43.1493 16.1648 43.7073 16.3785 44.3128C16.1173 43.9922 15.8324 43.7489 15.5237 43.5827C15.2269 43.4046 14.942 43.274 14.6689 43.1909C14.3484 43.0959 14.0278 43.0425 13.7073 43.0306C13.5648 42.7101 13.363 42.4074 13.1018 42.1224C12.8525 41.8375 12.5557 41.5941 12.2115 41.3923C11.879 41.1905 11.5051 41.0302 11.0896 40.9115C10.6859 40.7809 10.2645 40.7156 9.82523 40.7156C9.23164 40.7156 8.65586 40.8047 8.09788 40.9827C7.55178 41.1608 7.06503 41.4339 6.63765 41.8019C6.21026 42.158 5.86598 42.6151 5.6048 43.1731C5.35549 43.7311 5.23084 44.384 5.23084 45.1319ZM16.325 48.7291L14.4196 50.9372C14.5739 50.7473 14.7105 50.5277 14.8292 50.2784C14.9479 50.0172 15.0073 49.7441 15.0073 49.4592C15.0073 49.1861 14.9242 48.9131 14.758 48.64C14.5918 48.367 14.2831 48.1296 13.832 47.9277C13.7607 47.8921 13.6539 47.8506 13.5114 47.8031C13.369 47.7437 13.2206 47.6903 13.0662 47.6428C12.9119 47.5953 12.7576 47.5597 12.6032 47.536C12.4608 47.5004 12.342 47.4944 12.2471 47.5182L12.3361 47.0908L16.325 48.7291ZM16.325 48.7291L18.6044 52.3797L18.2127 52.5399C18.2127 52.445 18.183 52.3262 18.1236 52.1838C18.0761 52.0413 18.0168 51.8989 17.9455 51.7564C17.8743 51.6021 17.7971 51.4655 17.714 51.3468C17.6428 51.2162 17.5834 51.1153 17.536 51.0441C17.2629 50.6404 16.9899 50.3733 16.7168 50.2427C16.4438 50.1121 16.1707 50.0706 15.8977 50.1181C15.7552 50.1418 15.6365 50.1893 15.5415 50.2605C15.4584 50.3199 15.3753 50.3971 15.2922 50.492C15.2091 50.587 15.1201 50.6879 15.0251 50.7948C14.9301 50.9016 14.8114 51.0144 14.6689 51.1331L16.325 48.7291ZM20.3863 46.5209C20.3863 45.6424 20.5525 44.8233 20.8849 44.0635C21.2173 43.2918 21.6685 42.621 22.2383 42.0512C22.8082 41.4813 23.4789 41.0302 24.2506 40.6978C25.0222 40.3654 25.8414 40.1992 26.708 40.1992C27.5866 40.1992 28.4057 40.3654 29.1655 40.6978C29.9372 41.0302 30.6079 41.4813 31.1778 42.0512C31.7476 42.621 32.1987 43.2918 32.5312 44.0635C32.8636 44.8233 33.0298 45.6424 33.0298 46.5209C33.0298 47.3876 32.8636 48.2067 32.5312 48.9784C32.1987 49.7501 31.7476 50.4208 31.1778 50.9907C30.6079 51.5605 29.9372 52.0116 29.1655 52.344C28.4057 52.6765 27.5866 52.8427 26.708 52.8427C25.8414 52.8427 25.0222 52.6765 24.2506 52.344C23.4789 52.0116 22.8082 51.5605 22.2383 50.9907C21.6685 50.4208 21.2173 49.7501 20.8849 48.9784C20.5525 48.2067 20.3863 47.3876 20.3863 46.5209ZM22.7369 49.2099C23.1999 49.8985 23.7401 50.4742 24.3574 50.9372C24.9866 51.4002 25.6336 51.7326 26.2985 51.9345C26.9633 52.1363 27.6281 52.2016 28.2929 52.1304C28.9577 52.0591 29.5632 51.8395 30.1093 51.4715C30.6554 51.1034 31.0769 50.6286 31.3737 50.0469C31.6705 49.4533 31.8426 48.8122 31.8901 48.1236C31.9494 47.4232 31.8723 46.699 31.6586 45.9511C31.4568 45.2032 31.1243 44.4849 30.6613 43.7964C30.1983 43.1197 29.6582 42.5498 29.0408 42.0868C28.4354 41.6238 27.8002 41.2914 27.1354 41.0896C26.4825 40.8878 25.8236 40.8225 25.1588 40.8937C24.5058 40.9531 23.9063 41.1727 23.3602 41.5526C22.8141 41.9206 22.3808 42.4014 22.0602 42.995C21.7516 43.5886 21.5675 44.2356 21.5082 44.936C21.4607 45.6246 21.5379 46.3429 21.7397 47.0908C21.9415 47.8268 22.2739 48.5332 22.7369 49.2099ZM34.8029 46.5209C34.8029 45.6424 34.9691 44.8233 35.3015 44.0635C35.6339 43.2918 36.085 42.621 36.6549 42.0512C37.2247 41.4813 37.8955 41.0302 38.6672 40.6978C39.4388 40.3654 40.258 40.1992 41.1246 40.1992C42.0031 40.1992 42.8223 40.3654 43.5821 40.6978C44.3538 41.0302 45.0245 41.4813 45.5944 42.0512C46.1642 42.621 46.6153 43.2918 46.9477 44.0635C47.2802 44.8233 47.4464 45.6424 47.4464 46.5209C47.4464 47.3876 47.2802 48.2067 46.9477 48.9784C46.6153 49.7501 46.1642 50.4208 45.5944 50.9907C45.0245 51.5605 44.3538 52.0116 43.5821 52.344C42.8223 52.6765 42.0031 52.8427 41.1246 52.8427C40.258 52.8427 39.4388 52.6765 38.6672 52.344C37.8955 52.0116 37.2247 51.5605 36.6549 50.9907C36.085 50.4208 35.6339 49.7501 35.3015 48.9784C34.9691 48.2067 34.8029 47.3876 34.8029 46.5209ZM37.1535 49.2099C37.6165 49.8985 38.1567 50.4742 38.774 50.9372C39.4032 51.4002 40.0502 51.7326 40.715 51.9345C41.3799 52.1363 42.0447 52.2016 42.7095 52.1304C43.3743 52.0591 43.9798 51.8395 44.5259 51.4715C45.072 51.1034 45.4934 50.6286 45.7902 50.0469C46.087 49.4533 46.2592 48.8122 46.3067 48.1236C46.366 47.4232 46.2889 46.699 46.0752 45.9511C45.8733 45.2032 45.5409 44.4849 45.0779 43.7964C44.6149 43.1197 44.0748 42.5498 43.4574 42.0868C42.852 41.6238 42.2168 41.2914 41.552 41.0896C40.8991 40.8878 40.2402 40.8225 39.5754 40.8937C38.9224 40.9531 38.3229 41.1727 37.7768 41.5526C37.2307 41.9206 36.7974 42.4014 36.4768 42.995C36.1681 43.5886 35.9841 44.2356 35.9248 44.936C35.8773 45.6246 35.9545 46.3429 36.1563 47.0908C36.3581 47.8268 36.6905 48.5332 37.1535 49.2099ZM50.6085 52.7536V40.2882H52.0153V52.4509V52.7536H50.6085ZM49.3085 40.6088L49.2195 40.2882H52.0153V41.3567C52.0153 41.4635 51.9381 41.5348 51.7838 41.5704C51.6413 41.5941 51.4811 41.6001 51.303 41.5882C51.1368 41.5645 50.9765 41.5288 50.8222 41.4814C50.6797 41.4339 50.6085 41.3864 50.6085 41.3389C50.6085 41.054 50.5432 40.8343 50.4126 40.68C50.282 40.5138 50.098 40.4307 49.8606 40.4307C49.7537 40.4307 49.6587 40.4485 49.5756 40.4841C49.4925 40.5079 49.4035 40.5494 49.3085 40.6088ZM49.2195 52.7536L49.3085 52.4331C49.4035 52.4924 49.4925 52.5399 49.5756 52.5755C49.6587 52.5993 49.7537 52.6112 49.8606 52.6112C50.1099 52.6112 50.2939 52.5162 50.4126 52.3262C50.5432 52.1244 50.6085 51.9167 50.6085 51.703C50.6085 51.5368 50.6856 51.4418 50.84 51.418C50.9943 51.3943 51.1724 51.3824 51.3742 51.3824C51.576 51.3824 51.7304 51.3943 51.8372 51.418C51.9559 51.4418 52.0153 51.5368 52.0153 51.703C52.0153 52.0354 52.0865 52.2728 52.229 52.4153C52.3833 52.5459 52.5614 52.6112 52.7632 52.6112C52.8701 52.6112 52.965 52.5993 53.0481 52.5755C53.1312 52.5399 53.2203 52.4924 53.3152 52.4331L53.4043 52.7536H49.2195ZM53.2796 40.2882L52.7632 40.591C52.5258 40.591 52.3418 40.6503 52.2112 40.769C52.0806 40.8759 52.0153 41.0718 52.0153 41.3567C51.9559 41.3448 51.8906 41.2855 51.8194 41.1786C51.7482 41.0599 51.7126 40.9531 51.7126 40.8581C51.7126 40.7631 51.7304 40.6444 51.766 40.5019C51.8016 40.3595 51.8847 40.2882 52.0153 40.2882H52.229H53.2796ZM53.2796 40.2882C54.0632 40.2882 54.823 40.4544 55.559 40.7868C56.3069 41.1074 56.9718 41.5526 57.5535 42.1224C58.1352 42.6804 58.5982 43.3393 58.9425 44.0991C59.2986 44.847 59.4767 45.6484 59.4767 46.5031C59.4767 46.9305 59.3995 47.2867 59.2452 47.5716C59.1027 47.8446 58.9365 48.0049 58.7466 48.0524C58.5685 48.088 58.4023 47.9871 58.248 47.7497C58.1055 47.5004 58.0343 47.067 58.0343 46.4497C58.0343 45.7018 57.9096 44.9776 57.6603 44.2772C57.411 43.5649 57.0549 42.9356 56.5919 42.3895C56.1407 41.8434 55.5887 41.4101 54.9357 41.0896C54.2947 40.7572 53.5705 40.591 52.7632 40.591C52.8463 40.5316 52.9235 40.4782 52.9947 40.4307C53.0541 40.3951 53.1075 40.3654 53.155 40.3417C53.2143 40.306 53.2559 40.2882 53.2796 40.2882ZM53.2796 52.7536H52.229H52.0153C51.8847 52.7536 51.8016 52.6824 51.766 52.5399C51.7304 52.3975 51.7126 52.2788 51.7126 52.1838C51.7126 52.0888 51.7482 51.9879 51.8194 51.881C51.8906 51.7623 51.9559 51.697 52.0153 51.6852C52.0153 51.9701 52.0806 52.1719 52.2112 52.2906C52.3418 52.3975 52.5258 52.4509 52.7632 52.4509L53.2796 52.7536ZM53.2796 52.7536C53.2559 52.7536 53.2143 52.7418 53.155 52.718C53.1075 52.6824 53.0541 52.6408 52.9947 52.5934C52.9235 52.5577 52.8463 52.5103 52.7632 52.4509C53.5705 52.4509 54.2947 52.2906 54.9357 51.9701C55.5887 51.6377 56.1407 51.1984 56.5919 50.6523C57.0549 50.1062 57.411 49.4829 57.6603 48.7825C57.9096 48.0702 58.0343 47.3401 58.0343 46.5922C58.0343 45.963 58.1055 45.5296 58.248 45.2922C58.4023 45.0548 58.5685 44.9598 58.7466 45.0073C58.9365 45.0429 59.1027 45.2032 59.2452 45.4881C59.3995 45.7611 59.4767 46.1114 59.4767 46.5387C59.4767 47.3935 59.2986 48.2008 58.9425 48.9606C58.5982 49.7085 58.1352 50.3674 57.5535 50.9372C56.9718 51.4952 56.3069 51.9404 55.559 52.2728C54.823 52.5934 54.0632 52.7536 53.2796 52.7536ZM71.2615 52.7536L62.1618 40.2882H63.5686L71.2615 51.0797V52.7536ZM71.2615 52.7536L70.8876 52.0235V40.2882H71.2615V52.7536ZM72.5615 40.6088C72.4665 40.5494 72.3775 40.5079 72.2944 40.4841C72.2113 40.4485 72.1163 40.4307 72.0094 40.4307C71.772 40.4307 71.588 40.5138 71.4574 40.68C71.3268 40.8343 71.2615 41.054 71.2615 41.3389C71.2615 41.3508 71.2437 41.3567 71.2081 41.3567C71.1843 41.3567 71.1547 41.327 71.1191 41.2677C71.0834 41.1964 71.0478 41.0896 71.0122 40.9471C70.9885 40.7928 70.9766 40.5732 70.9766 40.2882H72.6505L72.5615 40.6088ZM69.5876 40.6088L69.4986 40.2882H71.1725C71.1725 40.5732 71.1547 40.7928 71.1191 40.9471C71.0953 41.0896 71.0656 41.1964 71.03 41.2677C70.9944 41.327 70.9588 41.3567 70.9232 41.3567C70.8994 41.3567 70.8876 41.3508 70.8876 41.3389C70.8876 41.054 70.8223 40.8343 70.6917 40.68C70.5611 40.5138 70.3771 40.4307 70.1396 40.4307C70.0328 40.4307 69.9378 40.4485 69.8547 40.4841C69.7716 40.5079 69.6826 40.5494 69.5876 40.6088ZM63.0344 40.2882V52.7536H62.6604V40.2882H63.0344ZM64.3343 52.4331L64.4234 52.7536H62.7494C62.7494 52.4687 62.7613 52.255 62.785 52.1125C62.8207 51.9582 62.8563 51.8514 62.8919 51.792C62.9275 51.7208 62.9572 51.6852 62.9809 51.6852C63.0165 51.6852 63.0344 51.6911 63.0344 51.703C63.0344 51.9879 63.0997 52.2135 63.2302 52.3797C63.3608 52.534 63.5448 52.6112 63.7823 52.6112C63.8891 52.6112 63.9841 52.5993 64.0672 52.5755C64.1503 52.5399 64.2393 52.4924 64.3343 52.4331ZM61.3604 52.4331C61.4554 52.4924 61.5444 52.5399 61.6275 52.5755C61.7107 52.5993 61.8056 52.6112 61.9125 52.6112C62.1499 52.6112 62.3339 52.534 62.4645 52.3797C62.5951 52.2135 62.6604 51.9879 62.6604 51.703C62.6604 51.6911 62.6723 51.6852 62.696 51.6852C62.7316 51.6852 62.7672 51.7208 62.8029 51.792C62.8385 51.8514 62.8682 51.9582 62.8919 52.1125C62.9275 52.255 62.9453 52.4687 62.9453 52.7536H61.2714L61.3604 52.4331ZM61.3426 40.6088L61.2536 40.2882H62.9275C62.9275 40.5732 62.9216 40.7809 62.9097 40.9115C62.8978 41.0421 62.8919 41.1311 62.8919 41.1786C62.8682 41.2261 62.8503 41.238 62.8385 41.2142C62.791 41.1549 62.7376 41.0836 62.6782 41.0005C62.6188 40.9056 62.5476 40.8165 62.4645 40.7334C62.3933 40.6503 62.3102 40.5791 62.2152 40.5197C62.1202 40.4604 62.0134 40.4307 61.8947 40.4307C61.7878 40.4307 61.6928 40.4485 61.6097 40.4841C61.5266 40.5079 61.4376 40.5494 61.3426 40.6088ZM71.2615 52.7536L62.1618 40.2882H63.5686L71.2615 51.0797V52.7536ZM71.2615 52.7536L70.8876 52.0235V40.2882H71.2615V52.7536ZM72.5615 40.6088C72.4665 40.5494 72.3775 40.5079 72.2944 40.4841C72.2113 40.4485 72.1163 40.4307 72.0094 40.4307C71.772 40.4307 71.588 40.5138 71.4574 40.68C71.3268 40.8343 71.2615 41.054 71.2615 41.3389C71.2615 41.3508 71.2437 41.3567 71.2081 41.3567C71.1843 41.3567 71.1547 41.327 71.1191 41.2677C71.0834 41.1964 71.0478 41.0896 71.0122 40.9471C70.9885 40.7928 70.9766 40.5732 70.9766 40.2882H72.6505L72.5615 40.6088ZM69.5876 40.6088L69.4986 40.2882H71.1725C71.1725 40.5732 71.1547 40.7928 71.1191 40.9471C71.0953 41.0896 71.0656 41.1964 71.03 41.2677C70.9944 41.327 70.9588 41.3567 70.9232 41.3567C70.8994 41.3567 70.8876 41.3508 70.8876 41.3389C70.8876 41.054 70.8223 40.8343 70.6917 40.68C70.5611 40.5138 70.3771 40.4307 70.1396 40.4307C70.0328 40.4307 69.9378 40.4485 69.8547 40.4841C69.7716 40.5079 69.6826 40.5494 69.5876 40.6088ZM63.0344 40.2882V52.7536H62.6604V40.2882H63.0344ZM64.3343 52.4331L64.4234 52.7536H62.7494C62.7494 52.4687 62.7613 52.255 62.785 52.1125C62.8207 51.9582 62.8563 51.8514 62.8919 51.792C62.9275 51.7208 62.9572 51.6852 62.9809 51.6852C63.0165 51.6852 63.0344 51.6911 63.0344 51.703C63.0344 51.9879 63.0997 52.2135 63.2302 52.3797C63.3608 52.534 63.5448 52.6112 63.7823 52.6112C63.8891 52.6112 63.9841 52.5993 64.0672 52.5755C64.1503 52.5399 64.2393 52.4924 64.3343 52.4331ZM61.3604 52.4331C61.4554 52.4924 61.5444 52.5399 61.6275 52.5755C61.7107 52.5993 61.8056 52.6112 61.9125 52.6112C62.1499 52.6112 62.3339 52.534 62.4645 52.3797C62.5951 52.2135 62.6604 51.9879 62.6604 51.703C62.6604 51.6911 62.6723 51.6852 62.696 51.6852C62.7316 51.6852 62.7672 51.7208 62.8029 51.792C62.8385 51.8514 62.8682 51.9582 62.8919 52.1125C62.9275 52.255 62.9453 52.4687 62.9453 52.7536H61.2714L61.3604 52.4331ZM61.3426 40.6088L61.2536 40.2882H62.9275C62.9275 40.5732 62.9216 40.7809 62.9097 40.9115C62.8978 41.0421 62.8919 41.1311 62.8919 41.1786C62.8682 41.2261 62.8503 41.238 62.8385 41.2142C62.791 41.1549 62.7376 41.0836 62.6782 41.0005C62.6188 40.9056 62.5476 40.8165 62.4645 40.7334C62.3933 40.6503 62.3102 40.5791 62.2152 40.5197C62.1202 40.4604 62.0134 40.4307 61.8947 40.4307C61.7878 40.4307 61.6928 40.4485 61.6097 40.4841C61.5266 40.5079 61.4376 40.5494 61.3426 40.6088ZM75.8245 52.7536V40.2882H77.2313V52.4509V52.7536H75.8245ZM75.8245 40.6622V40.2882H82.2708V40.6622H75.8245ZM81.0955 40.2882H82.4845L81.5229 44.4909L81.1312 44.3128C81.2024 44.2415 81.2677 44.1406 81.327 44.01C81.3864 43.8676 81.4398 43.7251 81.4873 43.5827C81.5467 43.4283 81.5942 43.2799 81.6298 43.1375C81.6654 42.9831 81.6891 42.8644 81.701 42.7813C81.796 42.2946 81.7782 41.9147 81.6476 41.6416C81.517 41.3567 81.333 41.143 81.0955 41.0005C80.87 40.8581 80.6147 40.769 80.3298 40.7334C80.0449 40.6859 79.7896 40.6622 79.5641 40.6622L81.0955 40.2882ZM74.4355 40.2882H75.3615H75.6108H78.6203L78.549 40.6622H78.0326C77.8427 40.6622 77.6587 40.6919 77.4806 40.7512C77.3144 40.8106 77.2313 41.0065 77.2313 41.3389C77.2313 41.5051 77.16 41.5763 77.0176 41.5526C76.887 41.5288 76.7208 41.4873 76.519 41.4279C76.329 41.4873 76.1628 41.5288 76.0203 41.5526C75.8898 41.5763 75.8245 41.5051 75.8245 41.3389C75.8245 41.1846 75.8067 41.054 75.771 40.9471C75.7354 40.8403 75.6879 40.7512 75.6286 40.68C75.5455 40.585 75.4564 40.5197 75.3615 40.4841C75.2784 40.4485 75.1834 40.4307 75.0765 40.4307C74.9697 40.4307 74.8747 40.4485 74.7916 40.4841C74.7085 40.5079 74.6195 40.5494 74.5245 40.6088L74.4355 40.2882ZM76.6614 45.862H79.4216V46.2538L76.6614 46.1648V45.862ZM79.5819 43.7073L81.0421 48.2127H80.686C80.6622 47.7971 80.6088 47.4588 80.5257 47.1976C80.4545 46.9364 80.3476 46.7346 80.2052 46.5922C80.0627 46.4497 79.8787 46.3547 79.6531 46.3072C79.4276 46.2597 79.1545 46.236 78.834 46.236V45.862C79.3682 45.862 79.6887 45.6899 79.7956 45.3456C79.9024 45.0013 79.7184 44.5443 79.2435 43.9744L79.5819 43.7073ZM75.8245 52.3797H83.1256V52.7536H75.8245V52.3797ZM81.9503 52.7536L80.4188 52.3797C80.6444 52.3797 80.8997 52.3619 81.1846 52.3262C81.4695 52.2788 81.7247 52.1838 81.9503 52.0413C82.1877 51.8989 82.3718 51.6852 82.5023 51.4002C82.6329 51.1153 82.6507 50.7354 82.5558 50.2605C82.5439 50.1774 82.5202 50.0647 82.4845 49.9222C82.4489 49.7679 82.4014 49.6195 82.3421 49.477C82.2946 49.3227 82.2412 49.1802 82.1818 49.0496C82.1224 48.9072 82.0572 48.8003 81.9859 48.7291L82.3777 48.551L83.3393 52.7536H81.9503ZM74.4355 52.7536L74.5245 52.4331C74.6195 52.4924 74.7085 52.5399 74.7916 52.5755C74.8747 52.5993 74.9697 52.6112 75.0765 52.6112C75.1834 52.6112 75.2784 52.5934 75.3615 52.5577C75.4564 52.5221 75.5455 52.4568 75.6286 52.3619C75.6879 52.2906 75.7354 52.2016 75.771 52.0947C75.8067 51.9879 75.8245 51.8573 75.8245 51.703C75.8245 51.5368 75.8898 51.4655 76.0203 51.4893C76.1628 51.513 76.329 51.5546 76.519 51.6139C76.7208 51.5546 76.887 51.513 77.0176 51.4893C77.16 51.4655 77.2313 51.5368 77.2313 51.703C77.2313 52.0354 77.3144 52.2313 77.4806 52.2906C77.6587 52.35 77.8427 52.3797 78.0326 52.3797H78.549L78.6203 52.7536H75.6108H75.3615H74.4355ZM87.9089 52.2728C88.5144 52.3084 89.108 52.2372 89.6897 52.0591C90.2714 51.8692 90.7285 51.5843 91.0609 51.2044C91.3102 50.9313 91.4645 50.6345 91.5239 50.314C91.5832 49.9934 91.5714 49.6788 91.4883 49.3702C91.417 49.0615 91.2805 48.7706 91.0787 48.4976C90.8887 48.2245 90.6632 47.993 90.402 47.8031C90.1408 47.6131 89.8203 47.4113 89.4404 47.1976C89.0724 46.9721 88.6925 46.7346 88.3007 46.4853C87.9208 46.236 87.5587 45.9808 87.2144 45.7196C86.8701 45.4465 86.5912 45.1735 86.3775 44.9004C85.9738 44.3781 85.7542 43.826 85.7186 43.2443C85.683 42.6507 85.7898 42.1046 86.0391 41.606C86.3003 41.1074 86.6743 40.6978 87.161 40.3773C87.6596 40.0449 88.2354 39.8787 88.8884 39.8787C89.292 39.8787 89.6481 39.9261 89.9568 40.0211C90.2774 40.1161 90.5445 40.217 90.7582 40.3238C91.0193 40.4544 91.2508 40.6028 91.4527 40.769L90.5979 44.4909L90.2061 44.3128C90.2774 44.2415 90.3426 44.1406 90.402 44.01C90.4614 43.8676 90.5148 43.7251 90.5623 43.5827C90.6216 43.4283 90.6691 43.2799 90.7047 43.1375C90.7404 42.9831 90.7641 42.8644 90.776 42.7813C90.8472 42.3895 90.8413 42.0512 90.7582 41.7663C90.6751 41.4695 90.5385 41.2261 90.3486 41.0362C90.1586 40.8343 89.9331 40.6859 89.6719 40.591C89.4107 40.4841 89.1377 40.4188 88.8527 40.3951C88.6034 40.3713 88.3541 40.3773 88.1048 40.4129C87.8674 40.4485 87.6418 40.5197 87.4281 40.6266C87.2144 40.7216 87.0245 40.8581 86.8583 41.0362C86.6921 41.2142 86.5674 41.4457 86.4843 41.7307C86.3418 42.2293 86.324 42.6745 86.4309 43.0662C86.5377 43.4461 86.7217 43.7904 86.9829 44.0991C87.256 44.4077 87.5825 44.6808 87.9623 44.9182C88.3422 45.1557 88.7281 45.3753 89.1198 45.5771C89.5235 45.7789 89.9034 45.9689 90.2595 46.147C90.6276 46.325 90.9244 46.5031 91.1499 46.6812C91.4586 46.9186 91.7257 47.2095 91.9513 47.5538C92.1887 47.8981 92.3371 48.278 92.3965 48.6935C92.4677 49.109 92.4321 49.5542 92.2896 50.029C92.1472 50.492 91.8504 50.9669 91.3992 51.4537C90.9956 51.881 90.491 52.2194 89.8856 52.4687C89.292 52.718 88.6153 52.8427 87.8555 52.8427C87.3925 52.8427 86.9889 52.807 86.6446 52.7358C86.3003 52.6646 86.0154 52.5815 85.7898 52.4865C85.5286 52.3915 85.3031 52.2788 85.1131 52.1482L85.9501 48.551L86.3418 48.7291C86.2706 48.8003 86.2053 48.9072 86.146 49.0496C86.0866 49.1802 86.0272 49.3227 85.9679 49.477C85.9204 49.6195 85.8788 49.7679 85.8432 49.9222C85.8076 50.0647 85.7839 50.1774 85.772 50.2605C85.7008 50.6523 85.7186 50.9788 85.8254 51.24C85.9441 51.4893 86.1103 51.6911 86.324 51.8454C86.5377 51.9879 86.787 52.0888 87.072 52.1482C87.3569 52.2075 87.6359 52.2491 87.9089 52.2728Z" fill="#410E28"/>
<rect y="55.1825" width="96.5365" height="1.78049" rx="0.788053" fill="#410E28"/>
<rect x="1.97009" y="57.9522" width="92.3992" height="1.78049" rx="0.788053" fill="#410E28"/>
<rect x="29.7491" y="75.0742" width="36.6445" height="1.78049" rx="0.788053" fill="#410E28"/>
<path d="M44.7584 59.5718H51.6443V75.558H49.975V67.754C49.975 67.5364 49.7985 67.3599 49.5809 67.3599H49.3257C49.108 67.3599 48.9316 67.5364 48.9316 67.754V75.558H44.7584V59.5718Z" fill="#410E28"/>
<path d="M42.9489 11.8671C43.1766 10.0381 44.6873 8.63819 46.5283 8.55018L47.4802 8.50467H48.8592L50.1168 8.56078C51.9369 8.64199 53.4182 10.0531 53.5876 11.8671V12.8746C53.5876 15.486 51.4706 17.6029 48.8592 17.6029H47.6772C45.0658 17.6029 42.9489 15.486 42.9489 12.8746V11.8671Z" fill="#410E28"/>
<path d="M51.8977 12.0655L52.5177 13.4307C52.5402 13.4804 52.6138 13.4694 52.621 13.4153L52.7181 12.681C52.7819 12.1989 52.7804 11.7104 52.7135 11.2287L52.693 11.0811C52.6323 10.6446 52.3606 10.266 51.9664 10.0689C51.4962 9.83375 50.988 9.68362 50.4654 9.62546L49.8789 9.56018C49.8426 9.55615 49.8213 9.59979 49.8467 9.62592L51.1326 10.9456C51.4504 11.2719 51.7093 11.6508 51.8977 12.0655Z" fill="white"/>
<path d="M43.9338 0.768184C43.9338 0.343928 44.2778 0 44.702 0H45.3129C46.4662 0.900476 47.3094 2.13863 47.7248 3.54154L47.916 4.18713C48.0849 4.75733 48.2117 5.33914 48.2955 5.92789L48.6622 8.50486H47.7756L47.3431 6.18897C47.0477 4.60732 46.269 3.15621 45.1143 2.03565L44.0213 0.974909C43.9654 0.920659 43.9338 0.846082 43.9338 0.768184Z" fill="#410E28"/>
</svg>
