<svg width="97" height="77" viewBox="0 0 97 77" fill="none" xmlns="http://www.w3.org/2000/svg">
<path d="M13.2997 26.5207C13.2997 25.6422 13.4659 24.8231 13.7984 24.0633C14.1308 23.2916 14.5819 22.6208 15.1517 22.051C15.7216 21.4811 16.3923 21.03 17.164 20.6976C17.9357 20.3652 18.7548 20.199 19.6215 20.199C20.5 20.199 21.3191 20.3652 22.0789 20.6976C22.8506 21.03 23.5214 21.4811 24.0912 22.051C24.6611 22.6208 25.1122 23.2916 25.4446 24.0633C25.777 24.8231 25.9432 25.6422 25.9432 26.5207C25.9432 27.3874 25.777 28.2065 25.4446 28.9782C25.1122 29.7499 24.6611 30.4206 24.0912 30.9905C23.5214 31.5603 22.8506 32.0114 22.0789 32.3438C21.3191 32.6763 20.5 32.8425 19.6215 32.8425C18.7548 32.8425 17.9357 32.6763 17.164 32.3438C16.3923 32.0114 15.7216 31.5603 15.1517 30.9905C14.5819 30.4206 14.1308 29.7499 13.7984 28.9782C13.4659 28.2065 13.2997 27.3874 13.2997 26.5207ZM15.6504 29.2097C16.1134 29.8983 16.6535 30.474 17.2709 30.937C17.9001 31.4 18.5471 31.7324 19.2119 31.9343C19.8767 32.1361 20.5415 32.2014 21.2064 32.1301C21.8712 32.0589 22.4766 31.8393 23.0227 31.4713C23.5689 31.1032 23.9903 30.6284 24.2871 30.0466C24.5839 29.4531 24.756 28.812 24.8035 28.1234C24.8629 27.423 24.7857 26.6988 24.572 25.9509C24.3702 25.203 24.0378 24.4847 23.5748 23.7961C23.1118 23.1195 22.5716 22.5496 21.9543 22.0866C21.3488 21.6236 20.7137 21.2912 20.0489 21.0894C19.3959 20.8876 18.737 20.8223 18.0722 20.8935C17.4193 20.9528 16.8197 21.1725 16.2736 21.5524C15.7275 21.9204 15.2942 22.4012 14.9737 22.9948C14.665 23.5884 14.481 24.2354 14.4216 24.9358C14.3741 25.6244 14.4513 26.3426 14.6531 27.0906C14.8549 27.8266 15.1874 28.533 15.6504 29.2097ZM31.9902 20.2702L31.9011 20.6086C31.8062 20.5492 31.7171 20.5017 31.634 20.4661C31.5509 20.4305 31.45 20.4127 31.3313 20.4127C31.0464 20.4127 30.8267 20.5077 30.6724 20.6976C30.5181 20.8757 30.5003 21.1369 30.619 21.4811L33.6997 30.6699C33.5929 30.9786 33.4979 31.2694 33.4148 31.5425C33.3317 31.7799 33.2486 32.0233 33.1655 32.2726C33.0943 32.51 33.0408 32.6941 33.0052 32.8246L29.1409 21.3565C29.046 21.0716 28.951 20.846 28.856 20.6798C28.7729 20.5017 28.6126 20.4127 28.3752 20.4127C28.2684 20.4127 28.1675 20.4305 28.0725 20.4661C27.9894 20.5017 27.9003 20.5492 27.8054 20.6086L27.7163 20.2702H31.9902ZM38.2585 20.288L38.1694 20.6086C38.0745 20.5492 37.9854 20.5077 37.9023 20.4839C37.8192 20.4483 37.7243 20.4305 37.6174 20.4305C37.4156 20.4305 37.2494 20.4958 37.1188 20.6264C36.9882 20.757 36.8754 20.9766 36.7804 21.2853L36.3531 21.4811L36.6558 20.288H37.3147H38.2585ZM36.3887 21.3209L37.0476 20.4661L33.4326 31.4891H33.2367L36.3887 21.3209ZM35.2312 20.288H37.101L36.6914 21.4633L36.3887 21.3209C36.4837 21.0122 36.4718 20.7866 36.3531 20.6442C36.2343 20.5017 36.0741 20.4305 35.8723 20.4305C35.7417 20.4305 35.6289 20.4542 35.5339 20.5017C35.4389 20.5492 35.3677 20.5848 35.3202 20.6086L35.2312 20.288ZM41.4351 32.7534V20.288H42.8419V32.4507V32.7534H41.4351ZM41.4351 20.662V20.288H47.8815V20.662H41.4351ZM46.7062 20.288H48.0952L47.1335 24.4906L46.7418 24.3126C46.813 24.2413 46.8783 24.1404 46.9377 24.0098C46.997 23.8674 47.0504 23.7249 47.0979 23.5825C47.1573 23.4281 47.2048 23.2797 47.2404 23.1373C47.276 22.9829 47.2997 22.8642 47.3116 22.7811C47.4066 22.2944 47.3888 21.9145 47.2582 21.6414C47.1276 21.3565 46.9436 21.1428 46.7062 21.0003C46.4806 20.8579 46.2253 20.7688 45.9404 20.7332C45.6555 20.6857 45.4003 20.662 45.1747 20.662L46.7062 20.288ZM40.0461 20.288H40.9721H41.2214H44.2309L44.1597 20.662H43.6432C43.4533 20.662 43.2693 20.6917 43.0912 20.751C42.925 20.8104 42.8419 21.0063 42.8419 21.3387C42.8419 21.5049 42.7707 21.5761 42.6282 21.5524C42.4976 21.5286 42.3314 21.4871 42.1296 21.4277C41.9396 21.4871 41.7734 21.5286 41.631 21.5524C41.5004 21.5761 41.4351 21.5049 41.4351 21.3387C41.4351 21.1843 41.4173 21.0538 41.3817 20.9469C41.346 20.8401 41.2985 20.751 41.2392 20.6798C41.1561 20.5848 41.067 20.5195 40.9721 20.4839C40.889 20.4483 40.794 20.4305 40.6872 20.4305C40.5803 20.4305 40.4853 20.4483 40.4022 20.4839C40.3191 20.5077 40.2301 20.5492 40.1351 20.6086L40.0461 20.288ZM42.272 25.8618H45.0322V26.2536L42.272 26.1646V25.8618ZM45.1925 23.7071L46.6527 28.2125H46.2966C46.2728 27.7969 46.2194 27.4586 46.1363 27.1974C46.0651 26.9362 45.9582 26.7344 45.8158 26.592C45.6733 26.4495 45.4893 26.3545 45.2637 26.307C45.0382 26.2595 44.7651 26.2358 44.4446 26.2358V25.8618C44.9788 25.8618 45.2993 25.6897 45.4062 25.3454C45.513 25.0011 45.329 24.5441 44.8542 23.9742L45.1925 23.7071ZM41.4351 32.3795H48.7362V32.7534H41.4351V32.3795ZM47.5609 32.7534L46.0295 32.3795C46.255 32.3795 46.5103 32.3616 46.7952 32.326C47.0801 32.2785 47.3354 32.1836 47.5609 32.0411C47.7984 31.8986 47.9824 31.685 48.113 31.4C48.2436 31.1151 48.2614 30.7352 48.1664 30.2603C48.1545 30.1772 48.1308 30.0645 48.0952 29.922C48.0595 29.7677 48.0121 29.6193 47.9527 29.4768C47.9052 29.3225 47.8518 29.18 47.7924 29.0494C47.7331 28.907 47.6678 28.8001 47.5965 28.7289L47.9883 28.5508L48.9499 32.7534H47.5609ZM40.0461 32.7534L40.1351 32.4329C40.2301 32.4922 40.3191 32.5397 40.4022 32.5753C40.4853 32.5991 40.5803 32.611 40.6872 32.611C40.794 32.611 40.889 32.5931 40.9721 32.5575C41.067 32.5219 41.1561 32.4566 41.2392 32.3616C41.2985 32.2904 41.346 32.2014 41.3817 32.0945C41.4173 31.9877 41.4351 31.8571 41.4351 31.7028C41.4351 31.5366 41.5004 31.4653 41.631 31.4891C41.7734 31.5128 41.9396 31.5544 42.1296 31.6137C42.3314 31.5544 42.4976 31.5128 42.6282 31.4891C42.7707 31.4653 42.8419 31.5366 42.8419 31.7028C42.8419 32.0352 42.925 32.2311 43.0912 32.2904C43.2693 32.3498 43.4533 32.3795 43.6432 32.3795H44.1597L44.2309 32.7534H41.2214H40.9721H40.0461ZM60.7317 32.7534L51.6319 20.288H53.0387L60.7317 31.0795V32.7534ZM60.7317 32.7534L60.3577 32.0233V20.288H60.7317V32.7534ZM62.0316 20.6086C61.9367 20.5492 61.8476 20.5077 61.7645 20.4839C61.6814 20.4483 61.5864 20.4305 61.4796 20.4305C61.2422 20.4305 61.0581 20.5136 60.9276 20.6798C60.797 20.8341 60.7317 21.0538 60.7317 21.3387C60.7317 21.3506 60.7139 21.3565 60.6782 21.3565C60.6545 21.3565 60.6248 21.3268 60.5892 21.2675C60.5536 21.1962 60.518 21.0894 60.4824 20.9469C60.4586 20.7926 60.4467 20.573 60.4467 20.288H62.1207L62.0316 20.6086ZM59.0577 20.6086L58.9687 20.288H60.6426C60.6426 20.573 60.6248 20.7926 60.5892 20.9469C60.5655 21.0894 60.5358 21.1962 60.5002 21.2675C60.4646 21.3268 60.4289 21.3565 60.3933 21.3565C60.3696 21.3565 60.3577 21.3506 60.3577 21.3387C60.3577 21.0538 60.2924 20.8341 60.1618 20.6798C60.0312 20.5136 59.8472 20.4305 59.6098 20.4305C59.5029 20.4305 59.408 20.4483 59.3249 20.4839C59.2418 20.5077 59.1527 20.5492 59.0577 20.6086ZM52.5045 20.288V32.7534H52.1305V20.288H52.5045ZM53.8045 32.4329L53.8935 32.7534H52.2196C52.2196 32.4685 52.2315 32.2548 52.2552 32.1123C52.2908 31.958 52.3264 31.8512 52.362 31.7918C52.3977 31.7206 52.4273 31.685 52.4511 31.685C52.4867 31.685 52.5045 31.6909 52.5045 31.7028C52.5045 31.9877 52.5698 32.2133 52.7004 32.3795C52.831 32.5338 53.015 32.611 53.2524 32.611C53.3593 32.611 53.4543 32.5991 53.5374 32.5753C53.6205 32.5397 53.7095 32.4922 53.8045 32.4329ZM50.8306 32.4329C50.9256 32.4922 51.0146 32.5397 51.0977 32.5753C51.1808 32.5991 51.2758 32.611 51.3826 32.611C51.6201 32.611 51.8041 32.5338 51.9347 32.3795C52.0653 32.2133 52.1305 31.9877 52.1305 31.7028C52.1305 31.6909 52.1424 31.685 52.1662 31.685C52.2018 31.685 52.2374 31.7206 52.273 31.7918C52.3086 31.8512 52.3383 31.958 52.362 32.1123C52.3977 32.2548 52.4155 32.4685 52.4155 32.7534H50.7415L50.8306 32.4329ZM50.8128 20.6086L50.7237 20.288H52.3977C52.3977 20.573 52.3917 20.7807 52.3799 20.9113C52.368 21.0419 52.362 21.1309 52.362 21.1784C52.3383 21.2259 52.3205 21.2378 52.3086 21.214C52.2611 21.1547 52.2077 21.0834 52.1484 21.0003C52.089 20.9054 52.0178 20.8163 51.9347 20.7332C51.8634 20.6501 51.7803 20.5789 51.6854 20.5195C51.5904 20.4602 51.4835 20.4305 51.3648 20.4305C51.258 20.4305 51.163 20.4483 51.0799 20.4839C50.9968 20.5077 50.9078 20.5492 50.8128 20.6086ZM60.7317 32.7534L51.6319 20.288H53.0387L60.7317 31.0795V32.7534ZM60.7317 32.7534L60.3577 32.0233V20.288H60.7317V32.7534ZM62.0316 20.6086C61.9367 20.5492 61.8476 20.5077 61.7645 20.4839C61.6814 20.4483 61.5864 20.4305 61.4796 20.4305C61.2422 20.4305 61.0581 20.5136 60.9276 20.6798C60.797 20.8341 60.7317 21.0538 60.7317 21.3387C60.7317 21.3506 60.7139 21.3565 60.6782 21.3565C60.6545 21.3565 60.6248 21.3268 60.5892 21.2675C60.5536 21.1962 60.518 21.0894 60.4824 20.9469C60.4586 20.7926 60.4467 20.573 60.4467 20.288H62.1207L62.0316 20.6086ZM59.0577 20.6086L58.9687 20.288H60.6426C60.6426 20.573 60.6248 20.7926 60.5892 20.9469C60.5655 21.0894 60.5358 21.1962 60.5002 21.2675C60.4646 21.3268 60.4289 21.3565 60.3933 21.3565C60.3696 21.3565 60.3577 21.3506 60.3577 21.3387C60.3577 21.0538 60.2924 20.8341 60.1618 20.6798C60.0312 20.5136 59.8472 20.4305 59.6098 20.4305C59.5029 20.4305 59.408 20.4483 59.3249 20.4839C59.2418 20.5077 59.1527 20.5492 59.0577 20.6086ZM52.5045 20.288V32.7534H52.1305V20.288H52.5045ZM53.8045 32.4329L53.8935 32.7534H52.2196C52.2196 32.4685 52.2315 32.2548 52.2552 32.1123C52.2908 31.958 52.3264 31.8512 52.362 31.7918C52.3977 31.7206 52.4273 31.685 52.4511 31.685C52.4867 31.685 52.5045 31.6909 52.5045 31.7028C52.5045 31.9877 52.5698 32.2133 52.7004 32.3795C52.831 32.5338 53.015 32.611 53.2524 32.611C53.3593 32.611 53.4543 32.5991 53.5374 32.5753C53.6205 32.5397 53.7095 32.4922 53.8045 32.4329ZM50.8306 32.4329C50.9256 32.4922 51.0146 32.5397 51.0977 32.5753C51.1808 32.5991 51.2758 32.611 51.3826 32.611C51.6201 32.611 51.8041 32.5338 51.9347 32.3795C52.0653 32.2133 52.1305 31.9877 52.1305 31.7028C52.1305 31.6909 52.1424 31.685 52.1662 31.685C52.2018 31.685 52.2374 31.7206 52.273 31.7918C52.3086 31.8512 52.3383 31.958 52.362 32.1123C52.3977 32.2548 52.4155 32.4685 52.4155 32.7534H50.7415L50.8306 32.4329ZM50.8128 20.6086L50.7237 20.288H52.3977C52.3977 20.573 52.3917 20.7807 52.3799 20.9113C52.368 21.0419 52.362 21.1309 52.362 21.1784C52.3383 21.2259 52.3205 21.2378 52.3086 21.214C52.2611 21.1547 52.2077 21.0834 52.1484 21.0003C52.089 20.9054 52.0178 20.8163 51.9347 20.7332C51.8634 20.6501 51.7803 20.5789 51.6854 20.5195C51.5904 20.4602 51.4835 20.4305 51.3648 20.4305C51.258 20.4305 51.163 20.4483 51.0799 20.4839C50.9968 20.5077 50.9078 20.5492 50.8128 20.6086ZM65.2946 20.288H66.7014V20.5908V32.7534H65.2946V20.288ZM63.9056 20.288H68.0904L68.0014 20.6086C67.9064 20.5492 67.8174 20.5077 67.7343 20.4839C67.6512 20.4483 67.5562 20.4305 67.4493 20.4305C67.2475 20.4305 67.0694 20.5017 66.9151 20.6442C66.7726 20.7748 66.7014 21.0063 66.7014 21.3387C66.7014 21.5049 66.6302 21.5761 66.4877 21.5524C66.3571 21.5286 66.1909 21.4871 65.9891 21.4277C65.7992 21.4871 65.633 21.5286 65.4905 21.5524C65.3599 21.5761 65.2946 21.5049 65.2946 21.3387C65.2946 21.1843 65.2768 21.0538 65.2412 20.9469C65.2056 20.8401 65.1581 20.751 65.0987 20.6798C65.0275 20.5848 64.9444 20.5195 64.8494 20.4839C64.7544 20.4483 64.6535 20.4305 64.5467 20.4305C64.4398 20.4305 64.3449 20.4483 64.2618 20.4839C64.1787 20.5077 64.0896 20.5492 63.9946 20.6086L63.9056 20.288ZM65.2946 20.288H66.7014V20.5908V32.7534H65.2946V20.288ZM63.9056 20.288H68.0904L68.0014 20.6086C67.9064 20.5492 67.8174 20.5077 67.7343 20.4839C67.6512 20.4483 67.5562 20.4305 67.4493 20.4305C67.2475 20.4305 67.0694 20.5017 66.9151 20.6442C66.7726 20.7748 66.7014 21.0063 66.7014 21.3387C66.7014 21.5049 66.6302 21.5761 66.4877 21.5524C66.3571 21.5286 66.1909 21.4871 65.9891 21.4277C65.7992 21.4871 65.633 21.5286 65.4905 21.5524C65.3599 21.5761 65.2946 21.5049 65.2946 21.3387C65.2946 21.1843 65.2768 21.0538 65.2412 20.9469C65.2056 20.8401 65.1581 20.751 65.0987 20.6798C65.0275 20.5848 64.9444 20.5195 64.8494 20.4839C64.7544 20.4483 64.6535 20.4305 64.5467 20.4305C64.4398 20.4305 64.3449 20.4483 64.2618 20.4839C64.1787 20.5077 64.0896 20.5492 63.9946 20.6086L63.9056 20.288ZM65.2946 32.3795V32.7534V32.3795ZM65.2946 32.3795H72.5958V32.7534H65.2946V32.3795ZM71.4205 32.7534L69.889 32.3795C70.1146 32.3795 70.3698 32.3616 70.6547 32.326C70.9397 32.2785 71.1949 32.1836 71.4205 32.0411C71.6579 31.8986 71.8419 31.685 71.9725 31.4C72.1031 31.1151 72.1209 30.7352 72.0259 30.2603C72.014 30.1772 71.9903 30.0645 71.9547 29.922C71.9191 29.7677 71.8716 29.6193 71.8122 29.4768C71.7647 29.3225 71.7113 29.18 71.652 29.0494C71.5926 28.907 71.5273 28.8001 71.4561 28.7289L71.8478 28.5508L72.8095 32.7534H71.4205ZM78.8571 20.3058L78.7681 20.6442C78.6731 20.5848 78.5841 20.5373 78.501 20.5017C78.4179 20.4661 78.317 20.4483 78.1982 20.4483C77.9133 20.4483 77.6937 20.5433 77.5393 20.7332C77.385 20.9113 77.3672 21.1725 77.4859 21.5168L79.605 27.8563L78.9105 30.0288L76.0079 21.3921C75.9129 21.1072 75.8179 20.8816 75.723 20.7154C75.6399 20.5373 75.4796 20.4483 75.2422 20.4483C75.1353 20.4483 75.0344 20.4661 74.9394 20.5017C74.8563 20.5373 74.7673 20.5848 74.6723 20.6442L74.5833 20.3058H78.8571ZM83.2378 20.288L83.1488 20.6442C83.0538 20.5848 82.9648 20.5433 82.8817 20.5195C82.7986 20.4839 82.7036 20.4661 82.5967 20.4661C82.3949 20.4661 82.2228 20.5314 82.0803 20.662C81.9497 20.7926 81.8369 21.0122 81.742 21.3209L81.3324 21.5168L81.6351 20.288H82.294H83.2378ZM81.368 21.3565L82.0091 20.5017L78.8393 30.2247L78.6256 30.2069L81.368 21.3565ZM80.2105 20.288H82.0803L81.6707 21.499L81.368 21.3565C81.463 21.0478 81.4511 20.8223 81.3324 20.6798C81.2137 20.5373 81.0534 20.4661 80.8516 20.4661C80.721 20.4661 80.6082 20.4898 80.5132 20.5373C80.4183 20.5848 80.347 20.6204 80.2995 20.6442L80.2105 20.288ZM78.1982 32.7534V27.9097H79.605V32.4507V32.7534H78.1982ZM76.8092 32.7534L76.8983 32.4329C76.9932 32.4922 77.0823 32.5397 77.1654 32.5753C77.2485 32.5991 77.3435 32.611 77.4503 32.611C77.5572 32.611 77.6581 32.5931 77.753 32.5575C77.848 32.5219 77.9311 32.4566 78.0023 32.3616C78.0617 32.2904 78.1092 32.2014 78.1448 32.0945C78.1804 31.9877 78.1982 31.8571 78.1982 31.7028C78.1982 31.5366 78.2635 31.4653 78.3941 31.4891C78.5366 31.5128 78.7028 31.5544 78.8927 31.6137C79.0946 31.5544 79.2608 31.5128 79.3914 31.4891C79.5338 31.4653 79.605 31.5366 79.605 31.7028C79.605 32.0352 79.6763 32.2726 79.8187 32.4151C79.9731 32.5457 80.1511 32.611 80.353 32.611C80.4598 32.611 80.5548 32.5991 80.6379 32.5753C80.721 32.5397 80.81 32.4922 80.905 32.4329L80.994 32.7534H76.8092ZM83.2378 20.288L83.1488 20.6442C83.0538 20.5848 82.9648 20.5433 82.8817 20.5195C82.7986 20.4839 82.7036 20.4661 82.5967 20.4661C82.3949 20.4661 82.2228 20.5314 82.0803 20.662C81.9497 20.7926 81.8369 21.0122 81.742 21.3209L81.3324 21.5168L81.6351 20.288H82.294H83.2378ZM81.368 21.3565L82.0091 20.5017L78.8393 30.2247L78.6256 30.2069L81.368 21.3565ZM80.2105 20.288H82.0803L81.6707 21.499L81.368 21.3565C81.463 21.0478 81.4511 20.8223 81.3324 20.6798C81.2137 20.5373 81.0534 20.4661 80.8516 20.4661C80.721 20.4661 80.6082 20.4898 80.5132 20.5373C80.4183 20.5848 80.347 20.6204 80.2995 20.6442L80.2105 20.288ZM5.23084 45.1317C5.23084 46.0815 5.39705 46.9837 5.72946 47.8385C6.07374 48.6814 6.5308 49.4234 7.10065 50.0645C7.6705 50.6937 8.32344 51.1982 9.0595 51.5781C9.80742 51.9461 10.5791 52.1301 11.3745 52.1301C11.9562 52.1301 12.4786 52.0411 12.9416 51.863C13.4164 51.6731 13.832 51.4238 14.1881 51.1151C14.5443 50.8064 14.8411 50.4503 15.0785 50.0466C15.3159 49.6311 15.4881 49.1978 15.5949 48.7467C15.5831 48.7467 15.6127 48.7467 15.684 48.7467C15.7671 48.7348 15.8561 48.7289 15.9511 48.7289C16.0579 48.7289 16.1826 48.7289 16.325 48.7289C16.0995 49.3225 15.7908 49.8686 15.399 50.3672C15.0073 50.8539 14.5561 51.2754 14.0457 51.6315C13.5352 51.9877 12.9713 52.2667 12.3539 52.4685C11.7485 52.6703 11.1074 52.7712 10.4307 52.7712C9.56405 52.7712 8.74489 52.605 7.97323 52.2726C7.20156 51.9402 6.5308 51.4891 5.96096 50.9192C5.39111 50.3494 4.93998 49.6786 4.60757 48.907C4.27516 48.1353 4.10896 47.3161 4.10896 46.4495C4.10896 45.571 4.27516 44.7518 4.60757 43.992C4.93998 43.2204 5.39111 42.5496 5.96096 41.9798C6.5308 41.4099 7.20156 40.9588 7.97323 40.6264C8.74489 40.294 9.56405 40.1278 10.4307 40.1278C11.1193 40.1278 11.7722 40.2346 12.3895 40.4483C13.0187 40.6501 13.5886 40.935 14.0991 41.3031C14.6214 41.6711 15.0785 42.1163 15.4703 42.6386C15.862 43.1491 16.1648 43.7071 16.3785 44.3126C16.1173 43.992 15.8324 43.7487 15.5237 43.5825C15.2269 43.4044 14.942 43.2738 14.6689 43.1907C14.3484 43.0957 14.0278 43.0423 13.7073 43.0304C13.5648 42.7099 13.363 42.4071 13.1018 42.1222C12.8525 41.8373 12.5557 41.5939 12.2115 41.3921C11.879 41.1903 11.5051 41.03 11.0896 40.9113C10.6859 40.7807 10.2645 40.7154 9.82523 40.7154C9.23164 40.7154 8.65586 40.8045 8.09788 40.9825C7.55178 41.1606 7.06503 41.4337 6.63765 41.8017C6.21026 42.1578 5.86598 42.6149 5.6048 43.1729C5.35549 43.7308 5.23084 44.3838 5.23084 45.1317ZM16.325 48.7289L14.4196 50.937C14.5739 50.7471 14.7105 50.5275 14.8292 50.2781C14.9479 50.017 15.0073 49.7439 15.0073 49.459C15.0073 49.1859 14.9242 48.9129 14.758 48.6398C14.5918 48.3668 14.2831 48.1294 13.832 47.9275C13.7607 47.8919 13.6539 47.8504 13.5114 47.8029C13.369 47.7435 13.2206 47.6901 13.0662 47.6426C12.9119 47.5951 12.7576 47.5595 12.6032 47.5358C12.4608 47.5001 12.342 47.4942 12.2471 47.518L12.3361 47.0906L16.325 48.7289ZM16.325 48.7289L18.6044 52.3795L18.2127 52.5397C18.2127 52.4448 18.183 52.326 18.1236 52.1836C18.0761 52.0411 18.0168 51.8986 17.9455 51.7562C17.8743 51.6019 17.7971 51.4653 17.714 51.3466C17.6428 51.216 17.5834 51.1151 17.536 51.0439C17.2629 50.6402 16.9899 50.3731 16.7168 50.2425C16.4438 50.1119 16.1707 50.0704 15.8977 50.1179C15.7552 50.1416 15.6365 50.1891 15.5415 50.2603C15.4584 50.3197 15.3753 50.3969 15.2922 50.4918C15.2091 50.5868 15.1201 50.6877 15.0251 50.7946C14.9301 50.9014 14.8114 51.0142 14.6689 51.1329L16.325 48.7289ZM20.3863 46.5207C20.3863 45.6422 20.5525 44.8231 20.8849 44.0633C21.2173 43.2916 21.6685 42.6208 22.2383 42.051C22.8082 41.4811 23.4789 41.03 24.2506 40.6976C25.0222 40.3652 25.8414 40.199 26.708 40.199C27.5866 40.199 28.4057 40.3652 29.1655 40.6976C29.9372 41.03 30.6079 41.4811 31.1778 42.051C31.7476 42.6208 32.1987 43.2916 32.5312 44.0633C32.8636 44.8231 33.0298 45.6422 33.0298 46.5207C33.0298 47.3874 32.8636 48.2065 32.5312 48.9782C32.1987 49.7499 31.7476 50.4206 31.1778 50.9905C30.6079 51.5603 29.9372 52.0114 29.1655 52.3438C28.4057 52.6763 27.5866 52.8425 26.708 52.8425C25.8414 52.8425 25.0222 52.6763 24.2506 52.3438C23.4789 52.0114 22.8082 51.5603 22.2383 50.9905C21.6685 50.4206 21.2173 49.7499 20.8849 48.9782C20.5525 48.2065 20.3863 47.3874 20.3863 46.5207ZM22.7369 49.2097C23.1999 49.8983 23.7401 50.474 24.3574 50.937C24.9866 51.4 25.6336 51.7324 26.2985 51.9343C26.9633 52.1361 27.6281 52.2014 28.2929 52.1301C28.9577 52.0589 29.5632 51.8393 30.1093 51.4713C30.6554 51.1032 31.0769 50.6284 31.3737 50.0466C31.6705 49.4531 31.8426 48.812 31.8901 48.1234C31.9494 47.423 31.8723 46.6988 31.6586 45.9509C31.4568 45.203 31.1243 44.4847 30.6613 43.7961C30.1983 43.1195 29.6582 42.5496 29.0408 42.0866C28.4354 41.6236 27.8002 41.2912 27.1354 41.0894C26.4825 40.8876 25.8236 40.8223 25.1588 40.8935C24.5058 40.9528 23.9063 41.1725 23.3602 41.5524C22.8141 41.9204 22.3808 42.4012 22.0602 42.9948C21.7516 43.5884 21.5675 44.2354 21.5082 44.9358C21.4607 45.6244 21.5379 46.3426 21.7397 47.0906C21.9415 47.8266 22.2739 48.533 22.7369 49.2097ZM34.8029 46.5207C34.8029 45.6422 34.9691 44.8231 35.3015 44.0633C35.6339 43.2916 36.085 42.6208 36.6549 42.051C37.2247 41.4811 37.8955 41.03 38.6672 40.6976C39.4388 40.3652 40.258 40.199 41.1246 40.199C42.0031 40.199 42.8223 40.3652 43.5821 40.6976C44.3538 41.03 45.0245 41.4811 45.5944 42.051C46.1642 42.6208 46.6153 43.2916 46.9477 44.0633C47.2802 44.8231 47.4464 45.6422 47.4464 46.5207C47.4464 47.3874 47.2802 48.2065 46.9477 48.9782C46.6153 49.7499 46.1642 50.4206 45.5944 50.9905C45.0245 51.5603 44.3538 52.0114 43.5821 52.3438C42.8223 52.6763 42.0031 52.8425 41.1246 52.8425C40.258 52.8425 39.4388 52.6763 38.6672 52.3438C37.8955 52.0114 37.2247 51.5603 36.6549 50.9905C36.085 50.4206 35.6339 49.7499 35.3015 48.9782C34.9691 48.2065 34.8029 47.3874 34.8029 46.5207ZM37.1535 49.2097C37.6165 49.8983 38.1567 50.474 38.774 50.937C39.4032 51.4 40.0502 51.7324 40.715 51.9343C41.3799 52.1361 42.0447 52.2014 42.7095 52.1301C43.3743 52.0589 43.9798 51.8393 44.5259 51.4713C45.072 51.1032 45.4934 50.6284 45.7902 50.0466C46.087 49.4531 46.2592 48.812 46.3067 48.1234C46.366 47.423 46.2889 46.6988 46.0752 45.9509C45.8733 45.203 45.5409 44.4847 45.0779 43.7961C44.6149 43.1195 44.0748 42.5496 43.4574 42.0866C42.852 41.6236 42.2168 41.2912 41.552 41.0894C40.8991 40.8876 40.2402 40.8223 39.5754 40.8935C38.9224 40.9528 38.3229 41.1725 37.7768 41.5524C37.2307 41.9204 36.7974 42.4012 36.4768 42.9948C36.1681 43.5884 35.9841 44.2354 35.9248 44.9358C35.8773 45.6244 35.9545 46.3426 36.1563 47.0906C36.3581 47.8266 36.6905 48.533 37.1535 49.2097ZM50.6085 52.7534V40.288H52.0153V52.4507V52.7534H50.6085ZM49.3085 40.6086L49.2195 40.288H52.0153V41.3565C52.0153 41.4633 51.9381 41.5346 51.7838 41.5702C51.6413 41.5939 51.4811 41.5999 51.303 41.588C51.1368 41.5642 50.9765 41.5286 50.8222 41.4811C50.6797 41.4337 50.6085 41.3862 50.6085 41.3387C50.6085 41.0538 50.5432 40.8341 50.4126 40.6798C50.282 40.5136 50.098 40.4305 49.8606 40.4305C49.7537 40.4305 49.6587 40.4483 49.5756 40.4839C49.4925 40.5077 49.4035 40.5492 49.3085 40.6086ZM49.2195 52.7534L49.3085 52.4329C49.4035 52.4922 49.4925 52.5397 49.5756 52.5753C49.6587 52.5991 49.7537 52.611 49.8606 52.611C50.1099 52.611 50.2939 52.516 50.4126 52.326C50.5432 52.1242 50.6085 51.9165 50.6085 51.7028C50.6085 51.5366 50.6856 51.4416 50.84 51.4178C50.9943 51.3941 51.1724 51.3822 51.3742 51.3822C51.576 51.3822 51.7304 51.3941 51.8372 51.4178C51.9559 51.4416 52.0153 51.5366 52.0153 51.7028C52.0153 52.0352 52.0865 52.2726 52.229 52.4151C52.3833 52.5457 52.5614 52.611 52.7632 52.611C52.8701 52.611 52.965 52.5991 53.0481 52.5753C53.1312 52.5397 53.2203 52.4922 53.3152 52.4329L53.4043 52.7534H49.2195ZM53.2796 40.288L52.7632 40.5908C52.5258 40.5908 52.3418 40.6501 52.2112 40.7688C52.0806 40.8757 52.0153 41.0716 52.0153 41.3565C51.9559 41.3446 51.8906 41.2853 51.8194 41.1784C51.7482 41.0597 51.7126 40.9528 51.7126 40.8579C51.7126 40.7629 51.7304 40.6442 51.766 40.5017C51.8016 40.3593 51.8847 40.288 52.0153 40.288H52.229H53.2796ZM53.2796 40.288C54.0632 40.288 54.823 40.4542 55.559 40.7866C56.3069 41.1072 56.9718 41.5524 57.5535 42.1222C58.1352 42.6802 58.5982 43.3391 58.9425 44.0989C59.2986 44.8468 59.4767 45.6481 59.4767 46.5029C59.4767 46.9303 59.3995 47.2865 59.2452 47.5714C59.1027 47.8444 58.9365 48.0047 58.7466 48.0522C58.5685 48.0878 58.4023 47.9869 58.248 47.7495C58.1055 47.5001 58.0343 47.0668 58.0343 46.4495C58.0343 45.7016 57.9096 44.9774 57.6603 44.277C57.411 43.5646 57.0549 42.9354 56.5919 42.3893C56.1407 41.8432 55.5887 41.4099 54.9357 41.0894C54.2947 40.757 53.5705 40.5908 52.7632 40.5908C52.8463 40.5314 52.9235 40.478 52.9947 40.4305C53.0541 40.3949 53.1075 40.3652 53.155 40.3415C53.2143 40.3058 53.2559 40.288 53.2796 40.288ZM53.2796 52.7534H52.229H52.0153C51.8847 52.7534 51.8016 52.6822 51.766 52.5397C51.7304 52.3973 51.7126 52.2785 51.7126 52.1836C51.7126 52.0886 51.7482 51.9877 51.8194 51.8808C51.8906 51.7621 51.9559 51.6968 52.0153 51.685C52.0153 51.9699 52.0806 52.1717 52.2112 52.2904C52.3418 52.3973 52.5258 52.4507 52.7632 52.4507L53.2796 52.7534ZM53.2796 52.7534C53.2559 52.7534 53.2143 52.7415 53.155 52.7178C53.1075 52.6822 53.0541 52.6406 52.9947 52.5931C52.9235 52.5575 52.8463 52.51 52.7632 52.4507C53.5705 52.4507 54.2947 52.2904 54.9357 51.9699C55.5887 51.6375 56.1407 51.1982 56.5919 50.6521C57.0549 50.106 57.411 49.4827 57.6603 48.7823C57.9096 48.07 58.0343 47.3399 58.0343 46.592C58.0343 45.9627 58.1055 45.5294 58.248 45.292C58.4023 45.0546 58.5685 44.9596 58.7466 45.0071C58.9365 45.0427 59.1027 45.203 59.2452 45.4879C59.3995 45.7609 59.4767 46.1111 59.4767 46.5385C59.4767 47.3933 59.2986 48.2006 58.9425 48.9604C58.5982 49.7083 58.1352 50.3672 57.5535 50.937C56.9718 51.495 56.3069 51.9402 55.559 52.2726C54.823 52.5931 54.0632 52.7534 53.2796 52.7534ZM71.2615 52.7534L62.1618 40.288H63.5686L71.2615 51.0795V52.7534ZM71.2615 52.7534L70.8876 52.0233V40.288H71.2615V52.7534ZM72.5615 40.6086C72.4665 40.5492 72.3775 40.5077 72.2944 40.4839C72.2113 40.4483 72.1163 40.4305 72.0094 40.4305C71.772 40.4305 71.588 40.5136 71.4574 40.6798C71.3268 40.8341 71.2615 41.0538 71.2615 41.3387C71.2615 41.3506 71.2437 41.3565 71.2081 41.3565C71.1843 41.3565 71.1547 41.3268 71.1191 41.2675C71.0834 41.1962 71.0478 41.0894 71.0122 40.9469C70.9885 40.7926 70.9766 40.573 70.9766 40.288H72.6505L72.5615 40.6086ZM69.5876 40.6086L69.4986 40.288H71.1725C71.1725 40.573 71.1547 40.7926 71.1191 40.9469C71.0953 41.0894 71.0656 41.1962 71.03 41.2675C70.9944 41.3268 70.9588 41.3565 70.9232 41.3565C70.8994 41.3565 70.8876 41.3506 70.8876 41.3387C70.8876 41.0538 70.8223 40.8341 70.6917 40.6798C70.5611 40.5136 70.3771 40.4305 70.1396 40.4305C70.0328 40.4305 69.9378 40.4483 69.8547 40.4839C69.7716 40.5077 69.6826 40.5492 69.5876 40.6086ZM63.0344 40.288V52.7534H62.6604V40.288H63.0344ZM64.3343 52.4329L64.4234 52.7534H62.7494C62.7494 52.4685 62.7613 52.2548 62.785 52.1123C62.8207 51.958 62.8563 51.8512 62.8919 51.7918C62.9275 51.7206 62.9572 51.685 62.9809 51.685C63.0165 51.685 63.0344 51.6909 63.0344 51.7028C63.0344 51.9877 63.0997 52.2133 63.2302 52.3795C63.3608 52.5338 63.5448 52.611 63.7823 52.611C63.8891 52.611 63.9841 52.5991 64.0672 52.5753C64.1503 52.5397 64.2393 52.4922 64.3343 52.4329ZM61.3604 52.4329C61.4554 52.4922 61.5444 52.5397 61.6275 52.5753C61.7107 52.5991 61.8056 52.611 61.9125 52.611C62.1499 52.611 62.3339 52.5338 62.4645 52.3795C62.5951 52.2133 62.6604 51.9877 62.6604 51.7028C62.6604 51.6909 62.6723 51.685 62.696 51.685C62.7316 51.685 62.7672 51.7206 62.8029 51.7918C62.8385 51.8512 62.8682 51.958 62.8919 52.1123C62.9275 52.2548 62.9453 52.4685 62.9453 52.7534H61.2714L61.3604 52.4329ZM61.3426 40.6086L61.2536 40.288H62.9275C62.9275 40.573 62.9216 40.7807 62.9097 40.9113C62.8978 41.0419 62.8919 41.1309 62.8919 41.1784C62.8682 41.2259 62.8503 41.2378 62.8385 41.214C62.791 41.1547 62.7376 41.0834 62.6782 41.0003C62.6188 40.9054 62.5476 40.8163 62.4645 40.7332C62.3933 40.6501 62.3102 40.5789 62.2152 40.5195C62.1202 40.4602 62.0134 40.4305 61.8947 40.4305C61.7878 40.4305 61.6928 40.4483 61.6097 40.4839C61.5266 40.5077 61.4376 40.5492 61.3426 40.6086ZM71.2615 52.7534L62.1618 40.288H63.5686L71.2615 51.0795V52.7534ZM71.2615 52.7534L70.8876 52.0233V40.288H71.2615V52.7534ZM72.5615 40.6086C72.4665 40.5492 72.3775 40.5077 72.2944 40.4839C72.2113 40.4483 72.1163 40.4305 72.0094 40.4305C71.772 40.4305 71.588 40.5136 71.4574 40.6798C71.3268 40.8341 71.2615 41.0538 71.2615 41.3387C71.2615 41.3506 71.2437 41.3565 71.2081 41.3565C71.1843 41.3565 71.1547 41.3268 71.1191 41.2675C71.0834 41.1962 71.0478 41.0894 71.0122 40.9469C70.9885 40.7926 70.9766 40.573 70.9766 40.288H72.6505L72.5615 40.6086ZM69.5876 40.6086L69.4986 40.288H71.1725C71.1725 40.573 71.1547 40.7926 71.1191 40.9469C71.0953 41.0894 71.0656 41.1962 71.03 41.2675C70.9944 41.3268 70.9588 41.3565 70.9232 41.3565C70.8994 41.3565 70.8876 41.3506 70.8876 41.3387C70.8876 41.0538 70.8223 40.8341 70.6917 40.6798C70.5611 40.5136 70.3771 40.4305 70.1396 40.4305C70.0328 40.4305 69.9378 40.4483 69.8547 40.4839C69.7716 40.5077 69.6826 40.5492 69.5876 40.6086ZM63.0344 40.288V52.7534H62.6604V40.288H63.0344ZM64.3343 52.4329L64.4234 52.7534H62.7494C62.7494 52.4685 62.7613 52.2548 62.785 52.1123C62.8207 51.958 62.8563 51.8512 62.8919 51.7918C62.9275 51.7206 62.9572 51.685 62.9809 51.685C63.0165 51.685 63.0344 51.6909 63.0344 51.7028C63.0344 51.9877 63.0997 52.2133 63.2302 52.3795C63.3608 52.5338 63.5448 52.611 63.7823 52.611C63.8891 52.611 63.9841 52.5991 64.0672 52.5753C64.1503 52.5397 64.2393 52.4922 64.3343 52.4329ZM61.3604 52.4329C61.4554 52.4922 61.5444 52.5397 61.6275 52.5753C61.7107 52.5991 61.8056 52.611 61.9125 52.611C62.1499 52.611 62.3339 52.5338 62.4645 52.3795C62.5951 52.2133 62.6604 51.9877 62.6604 51.7028C62.6604 51.6909 62.6723 51.685 62.696 51.685C62.7316 51.685 62.7672 51.7206 62.8029 51.7918C62.8385 51.8512 62.8682 51.958 62.8919 52.1123C62.9275 52.2548 62.9453 52.4685 62.9453 52.7534H61.2714L61.3604 52.4329ZM61.3426 40.6086L61.2536 40.288H62.9275C62.9275 40.573 62.9216 40.7807 62.9097 40.9113C62.8978 41.0419 62.8919 41.1309 62.8919 41.1784C62.8682 41.2259 62.8503 41.2378 62.8385 41.214C62.791 41.1547 62.7376 41.0834 62.6782 41.0003C62.6188 40.9054 62.5476 40.8163 62.4645 40.7332C62.3933 40.6501 62.3102 40.5789 62.2152 40.5195C62.1202 40.4602 62.0134 40.4305 61.8947 40.4305C61.7878 40.4305 61.6928 40.4483 61.6097 40.4839C61.5266 40.5077 61.4376 40.5492 61.3426 40.6086ZM75.8245 52.7534V40.288H77.2313V52.4507V52.7534H75.8245ZM75.8245 40.662V40.288H82.2708V40.662H75.8245ZM81.0955 40.288H82.4845L81.5229 44.4906L81.1312 44.3126C81.2024 44.2413 81.2677 44.1404 81.327 44.0098C81.3864 43.8674 81.4398 43.7249 81.4873 43.5825C81.5467 43.4281 81.5942 43.2797 81.6298 43.1373C81.6654 42.9829 81.6891 42.8642 81.701 42.7811C81.796 42.2944 81.7782 41.9145 81.6476 41.6414C81.517 41.3565 81.333 41.1428 81.0955 41.0003C80.87 40.8579 80.6147 40.7688 80.3298 40.7332C80.0449 40.6857 79.7896 40.662 79.5641 40.662L81.0955 40.288ZM74.4355 40.288H75.3615H75.6108H78.6203L78.549 40.662H78.0326C77.8427 40.662 77.6587 40.6917 77.4806 40.751C77.3144 40.8104 77.2313 41.0063 77.2313 41.3387C77.2313 41.5049 77.16 41.5761 77.0176 41.5524C76.887 41.5286 76.7208 41.4871 76.519 41.4277C76.329 41.4871 76.1628 41.5286 76.0203 41.5524C75.8898 41.5761 75.8245 41.5049 75.8245 41.3387C75.8245 41.1843 75.8067 41.0538 75.771 40.9469C75.7354 40.8401 75.6879 40.751 75.6286 40.6798C75.5455 40.5848 75.4564 40.5195 75.3615 40.4839C75.2784 40.4483 75.1834 40.4305 75.0765 40.4305C74.9697 40.4305 74.8747 40.4483 74.7916 40.4839C74.7085 40.5077 74.6195 40.5492 74.5245 40.6086L74.4355 40.288ZM76.6614 45.8618H79.4216V46.2536L76.6614 46.1646V45.8618ZM79.5819 43.7071L81.0421 48.2125H80.686C80.6622 47.7969 80.6088 47.4586 80.5257 47.1974C80.4545 46.9362 80.3476 46.7344 80.2052 46.592C80.0627 46.4495 79.8787 46.3545 79.6531 46.307C79.4276 46.2595 79.1545 46.2358 78.834 46.2358V45.8618C79.3682 45.8618 79.6887 45.6897 79.7956 45.3454C79.9024 45.0011 79.7184 44.5441 79.2435 43.9742L79.5819 43.7071ZM75.8245 52.3795H83.1256V52.7534H75.8245V52.3795ZM81.9503 52.7534L80.4188 52.3795C80.6444 52.3795 80.8997 52.3616 81.1846 52.326C81.4695 52.2785 81.7247 52.1836 81.9503 52.0411C82.1877 51.8986 82.3718 51.685 82.5023 51.4C82.6329 51.1151 82.6507 50.7352 82.5558 50.2603C82.5439 50.1772 82.5202 50.0645 82.4845 49.922C82.4489 49.7677 82.4014 49.6193 82.3421 49.4768C82.2946 49.3225 82.2412 49.18 82.1818 49.0494C82.1224 48.907 82.0572 48.8001 81.9859 48.7289L82.3777 48.5508L83.3393 52.7534H81.9503ZM74.4355 52.7534L74.5245 52.4329C74.6195 52.4922 74.7085 52.5397 74.7916 52.5753C74.8747 52.5991 74.9697 52.611 75.0765 52.611C75.1834 52.611 75.2784 52.5931 75.3615 52.5575C75.4564 52.5219 75.5455 52.4566 75.6286 52.3616C75.6879 52.2904 75.7354 52.2014 75.771 52.0945C75.8067 51.9877 75.8245 51.8571 75.8245 51.7028C75.8245 51.5366 75.8898 51.4653 76.0203 51.4891C76.1628 51.5128 76.329 51.5544 76.519 51.6137C76.7208 51.5544 76.887 51.5128 77.0176 51.4891C77.16 51.4653 77.2313 51.5366 77.2313 51.7028C77.2313 52.0352 77.3144 52.2311 77.4806 52.2904C77.6587 52.3498 77.8427 52.3795 78.0326 52.3795H78.549L78.6203 52.7534H75.6108H75.3615H74.4355ZM87.9089 52.2726C88.5144 52.3082 89.108 52.237 89.6897 52.0589C90.2714 51.869 90.7285 51.584 91.0609 51.2041C91.3102 50.9311 91.4645 50.6343 91.5239 50.3138C91.5832 49.9932 91.5714 49.6786 91.4883 49.37C91.417 49.0613 91.2805 48.7704 91.0787 48.4974C90.8887 48.2243 90.6632 47.9928 90.402 47.8029C90.1408 47.6129 89.8203 47.4111 89.4404 47.1974C89.0724 46.9719 88.6925 46.7344 88.3007 46.4851C87.9208 46.2358 87.5587 45.9806 87.2144 45.7194C86.8701 45.4463 86.5912 45.1733 86.3775 44.9002C85.9738 44.3779 85.7542 43.8258 85.7186 43.2441C85.683 42.6505 85.7898 42.1044 86.0391 41.6058C86.3003 41.1072 86.6743 40.6976 87.161 40.3771C87.6596 40.0447 88.2354 39.8785 88.8884 39.8785C89.292 39.8785 89.6481 39.9259 89.9568 40.0209C90.2774 40.1159 90.5445 40.2168 90.7582 40.3236C91.0193 40.4542 91.2508 40.6026 91.4527 40.7688L90.5979 44.4906L90.2061 44.3126C90.2774 44.2413 90.3426 44.1404 90.402 44.0098C90.4614 43.8674 90.5148 43.7249 90.5623 43.5825C90.6216 43.4281 90.6691 43.2797 90.7047 43.1373C90.7404 42.9829 90.7641 42.8642 90.776 42.7811C90.8472 42.3893 90.8413 42.051 90.7582 41.7661C90.6751 41.4693 90.5385 41.2259 90.3486 41.036C90.1586 40.8341 89.9331 40.6857 89.6719 40.5908C89.4107 40.4839 89.1377 40.4186 88.8527 40.3949C88.6034 40.3711 88.3541 40.3771 88.1048 40.4127C87.8674 40.4483 87.6418 40.5195 87.4281 40.6264C87.2144 40.7213 87.0245 40.8579 86.8583 41.036C86.6921 41.214 86.5674 41.4455 86.4843 41.7305C86.3418 42.2291 86.324 42.6743 86.4309 43.066C86.5377 43.4459 86.7217 43.7902 86.9829 44.0989C87.256 44.4075 87.5825 44.6806 87.9623 44.918C88.3422 45.1555 88.7281 45.3751 89.1198 45.5769C89.5235 45.7787 89.9034 45.9687 90.2595 46.1468C90.6276 46.3248 90.9244 46.5029 91.1499 46.681C91.4586 46.9184 91.7257 47.2093 91.9513 47.5536C92.1887 47.8979 92.3371 48.2777 92.3965 48.6933C92.4677 49.1088 92.4321 49.554 92.2896 50.0288C92.1472 50.4918 91.8504 50.9667 91.3992 51.4535C90.9956 51.8808 90.491 52.2192 89.8856 52.4685C89.292 52.7178 88.6153 52.8425 87.8555 52.8425C87.3925 52.8425 86.9889 52.8068 86.6446 52.7356C86.3003 52.6644 86.0154 52.5813 85.7898 52.4863C85.5286 52.3913 85.3031 52.2785 85.1131 52.148L85.9501 48.5508L86.3418 48.7289C86.2706 48.8001 86.2053 48.907 86.146 49.0494C86.0866 49.18 86.0272 49.3225 85.9679 49.4768C85.9204 49.6193 85.8788 49.7677 85.8432 49.922C85.8076 50.0645 85.7839 50.1772 85.772 50.2603C85.7008 50.6521 85.7186 50.9786 85.8254 51.2398C85.9441 51.4891 86.1103 51.6909 86.324 51.8452C86.5377 51.9877 86.787 52.0886 87.072 52.148C87.3569 52.2073 87.6359 52.2489 87.9089 52.2726Z" fill="#FBF5F8"/>
<rect y="55.1826" width="96.5365" height="1.78049" rx="0.788053" fill="#FBF5F8"/>
<rect x="1.97009" y="57.9521" width="92.3992" height="1.78049" rx="0.788053" fill="#FBF5F8"/>
<rect x="29.7491" y="75.0742" width="36.6445" height="1.78049" rx="0.788053" fill="#FBF5F8"/>
<path d="M44.7584 59.5718H51.6443V75.558H49.975V67.754C49.975 67.5363 49.7985 67.3599 49.5809 67.3599H49.3257C49.108 67.3599 48.9316 67.5363 48.9316 67.754V75.558H44.7584V59.5718Z" fill="#FBF5F8"/>
<path d="M42.9489 11.8673C43.1766 10.0383 44.6873 8.6384 46.5283 8.55039L47.4802 8.50488H48.8592L50.1168 8.561C51.9369 8.6422 53.4182 10.0533 53.5876 11.8673V12.8748C53.5876 15.4862 51.4706 17.6031 48.8592 17.6031H47.6772C45.0658 17.6031 42.9489 15.4862 42.9489 12.8748V11.8673Z" fill="#FBF5F8"/>
<path d="M51.8977 12.0657L52.5177 13.4308C52.5402 13.4805 52.6138 13.4696 52.621 13.4155L52.7181 12.6812C52.7819 12.199 52.7804 11.7105 52.7135 11.2288L52.693 11.0813C52.6323 10.6448 52.3606 10.2662 51.9664 10.0691C51.4962 9.83391 50.988 9.68379 50.4654 9.62563L49.8789 9.56035C49.8426 9.55631 49.8213 9.59996 49.8467 9.62608L51.1326 10.9458C51.4504 11.2721 51.7093 11.651 51.8977 12.0657Z" fill="white"/>
<path d="M43.9338 0.768184C43.9338 0.343928 44.2778 0 44.702 0H45.3129C46.4662 0.900476 47.3094 2.13863 47.7248 3.54154L47.916 4.18713C48.0849 4.75733 48.2117 5.33914 48.2955 5.92789L48.6622 8.50486H47.7756L47.3431 6.18897C47.0477 4.60732 46.269 3.15621 45.1143 2.03565L44.0213 0.974909C43.9654 0.920659 43.9338 0.846082 43.9338 0.768184Z" fill="#FBF5F8"/>
</svg>
